<?xml version="1.0" encoding="utf-8" standalone="no"?>
<!DOCTYPE svg PUBLIC "-//W3C//DTD SVG 1.1//EN"
  "http://www.w3.org/Graphics/SVG/1.1/DTD/svg11.dtd">
<svg xmlns:xlink="http://www.w3.org/1999/xlink" width="327.305117pt" height="205.834219pt" viewBox="0 0 327.305117 205.834219" xmlns="http://www.w3.org/2000/svg" version="1.1">
 <metadata>
  <rdf:RDF xmlns:dc="http://purl.org/dc/elements/1.1/" xmlns:cc="http://creativecommons.org/ns#" xmlns:rdf="http://www.w3.org/1999/02/22-rdf-syntax-ns#">
   <cc:Work>
    <dc:type rdf:resource="http://purl.org/dc/dcmitype/StillImage"/>
    <dc:date>2026-07-01T16:26:34.276013</dc:date>
    <dc:format>image/svg+xml</dc:format>
    <dc:creator>
     <cc:Agent>
      <dc:title>Matplotlib v3.11.0, https://matplotlib.org/</dc:title>
     </cc:Agent>
    </dc:creator>
   </cc:Work>
  </rdf:RDF>
 </metadata>
 <defs>
  <style type="text/css">*{stroke-linejoin: round; stroke-linecap: butt}</style>
 </defs>
 <g id="figure_1">
  <g id="patch_1">
   <path d="M 0 205.834219 
L 327.305117 205.834219 
L 327.305117 0 
L 0 0 
z
" style="fill: #ffffff"/>
  </g>
  <g id="axes_1">
   <g id="patch_2">
    <path d="M 41.925859 166.633359 
L 299.323281 166.633359 
L 299.323281 21.558281 
L 41.925859 21.558281 
z
" style="fill: #ffffff"/>
   </g>
   <g id="matplotlib.axis_1">
    <g id="xtick_1">
     <g id="line2d_1">
      <path d="M 53.625742 166.633359 
L 53.625742 21.558281 
" clip-path="url(#p5e09171a1b)" style="fill: none; stroke-dasharray: 0.4,0.66; stroke-dashoffset: 0; stroke: #b0b0b0; stroke-opacity: 0.35; stroke-width: 0.4"/>
     </g>
     <g id="line2d_2">
      <defs>
       <path id="m9528cace82" d="M 0 0 
L 0 3.5 
" style="stroke: #000000; stroke-width: 0.8"/>
      </defs>
      <g>
       <use xlink:href="#m9528cace82" x="53.625742" y="166.633359" style="stroke: #000000; stroke-width: 0.8"/>
      </g>
     </g>
     <g id="text_1">
      <!-- 1 -->
      <g transform="translate(50.444492 181.231016) scale(0.1 -0.1)">
       <defs>
        <path id="DejaVuSans-14" d="M 794 531 
L 1825 531 
L 1825 4091 
L 703 3866 
L 703 4441 
L 1819 4666 
L 2450 4666 
L 2450 531 
L 3481 531 
L 3481 0 
L 794 0 
L 794 531 
z
" transform="scale(0.015625)"/>
       </defs>
       <use xlink:href="#DejaVuSans-14"/>
      </g>
     </g>
    </g>
    <g id="xtick_2">
     <g id="line2d_3">
      <path d="M 100.425273 166.633359 
L 100.425273 21.558281 
" clip-path="url(#p5e09171a1b)" style="fill: none; stroke-dasharray: 0.4,0.66; stroke-dashoffset: 0; stroke: #b0b0b0; stroke-opacity: 0.35; stroke-width: 0.4"/>
     </g>
     <g id="line2d_4">
      <g>
       <use xlink:href="#m9528cace82" x="100.425273" y="166.633359" style="stroke: #000000; stroke-width: 0.8"/>
      </g>
     </g>
     <g id="text_2">
      <!-- 2 -->
      <g transform="translate(97.244023 181.231016) scale(0.1 -0.1)">
       <defs>
        <path id="DejaVuSans-15" d="M 1228 531 
L 3431 531 
L 3431 0 
L 469 0 
L 469 531 
Q 828 903 1448 1529 
Q 2069 2156 2228 2338 
Q 2531 2678 2651 2914 
Q 2772 3150 2772 3378 
Q 2772 3750 2511 3984 
Q 2250 4219 1831 4219 
Q 1534 4219 1204 4116 
Q 875 4013 500 3803 
L 500 4441 
Q 881 4594 1212 4672 
Q 1544 4750 1819 4750 
Q 2544 4750 2975 4387 
Q 3406 4025 3406 3419 
Q 3406 3131 3298 2873 
Q 3191 2616 2906 2266 
Q 2828 2175 2409 1742 
Q 1991 1309 1228 531 
z
" transform="scale(0.015625)"/>
       </defs>
       <use xlink:href="#DejaVuSans-15"/>
      </g>
     </g>
    </g>
    <g id="xtick_3">
     <g id="line2d_5">
      <path d="M 147.224805 166.633359 
L 147.224805 21.558281 
" clip-path="url(#p5e09171a1b)" style="fill: none; stroke-dasharray: 0.4,0.66; stroke-dashoffset: 0; stroke: #b0b0b0; stroke-opacity: 0.35; stroke-width: 0.4"/>
     </g>
     <g id="line2d_6">
      <g>
       <use xlink:href="#m9528cace82" x="147.224805" y="166.633359" style="stroke: #000000; stroke-width: 0.8"/>
      </g>
     </g>
     <g id="text_3">
      <!-- 4 -->
      <g transform="translate(144.043555 181.231016) scale(0.1 -0.1)">
       <defs>
        <path id="DejaVuSans-17" d="M 2419 4116 
L 825 1625 
L 2419 1625 
L 2419 4116 
z
M 2253 4666 
L 3047 4666 
L 3047 1625 
L 3713 1625 
L 3713 1100 
L 3047 1100 
L 3047 0 
L 2419 0 
L 2419 1100 
L 313 1100 
L 313 1709 
L 2253 4666 
z
" transform="scale(0.015625)"/>
       </defs>
       <use xlink:href="#DejaVuSans-17"/>
      </g>
     </g>
    </g>
    <g id="xtick_4">
     <g id="line2d_7">
      <path d="M 194.024336 166.633359 
L 194.024336 21.558281 
" clip-path="url(#p5e09171a1b)" style="fill: none; stroke-dasharray: 0.4,0.66; stroke-dashoffset: 0; stroke: #b0b0b0; stroke-opacity: 0.35; stroke-width: 0.4"/>
     </g>
     <g id="line2d_8">
      <g>
       <use xlink:href="#m9528cace82" x="194.024336" y="166.633359" style="stroke: #000000; stroke-width: 0.8"/>
      </g>
     </g>
     <g id="text_4">
      <!-- 8 -->
      <g transform="translate(190.843086 181.231016) scale(0.1 -0.1)">
       <defs>
        <path id="DejaVuSans-1b" d="M 2034 2216 
Q 1584 2216 1326 1975 
Q 1069 1734 1069 1313 
Q 1069 891 1326 650 
Q 1584 409 2034 409 
Q 2484 409 2743 651 
Q 3003 894 3003 1313 
Q 3003 1734 2745 1975 
Q 2488 2216 2034 2216 
z
M 1403 2484 
Q 997 2584 770 2862 
Q 544 3141 544 3541 
Q 544 4100 942 4425 
Q 1341 4750 2034 4750 
Q 2731 4750 3128 4425 
Q 3525 4100 3525 3541 
Q 3525 3141 3298 2862 
Q 3072 2584 2669 2484 
Q 3125 2378 3379 2068 
Q 3634 1759 3634 1313 
Q 3634 634 3220 271 
Q 2806 -91 2034 -91 
Q 1263 -91 848 271 
Q 434 634 434 1313 
Q 434 1759 690 2068 
Q 947 2378 1403 2484 
z
M 1172 3481 
Q 1172 3119 1398 2916 
Q 1625 2713 2034 2713 
Q 2441 2713 2670 2916 
Q 2900 3119 2900 3481 
Q 2900 3844 2670 4047 
Q 2441 4250 2034 4250 
Q 1625 4250 1398 4047 
Q 1172 3844 1172 3481 
z
" transform="scale(0.015625)"/>
       </defs>
       <use xlink:href="#DejaVuSans-1b"/>
      </g>
     </g>
    </g>
    <g id="xtick_5">
     <g id="line2d_9">
      <path d="M 240.823867 166.633359 
L 240.823867 21.558281 
" clip-path="url(#p5e09171a1b)" style="fill: none; stroke-dasharray: 0.4,0.66; stroke-dashoffset: 0; stroke: #b0b0b0; stroke-opacity: 0.35; stroke-width: 0.4"/>
     </g>
     <g id="line2d_10">
      <g>
       <use xlink:href="#m9528cace82" x="240.823867" y="166.633359" style="stroke: #000000; stroke-width: 0.8"/>
      </g>
     </g>
     <g id="text_5">
      <!-- 16 -->
      <g transform="translate(234.461367 181.231016) scale(0.1 -0.1)">
       <defs>
        <path id="DejaVuSans-19" d="M 2113 2584 
Q 1688 2584 1439 2293 
Q 1191 2003 1191 1497 
Q 1191 994 1439 701 
Q 1688 409 2113 409 
Q 2538 409 2786 701 
Q 3034 994 3034 1497 
Q 3034 2003 2786 2293 
Q 2538 2584 2113 2584 
z
M 3366 4563 
L 3366 3988 
Q 3128 4100 2886 4159 
Q 2644 4219 2406 4219 
Q 1781 4219 1451 3797 
Q 1122 3375 1075 2522 
Q 1259 2794 1537 2939 
Q 1816 3084 2150 3084 
Q 2853 3084 3261 2657 
Q 3669 2231 3669 1497 
Q 3669 778 3244 343 
Q 2819 -91 2113 -91 
Q 1303 -91 875 529 
Q 447 1150 447 2328 
Q 447 3434 972 4092 
Q 1497 4750 2381 4750 
Q 2619 4750 2861 4703 
Q 3103 4656 3366 4563 
z
" transform="scale(0.015625)"/>
       </defs>
       <use xlink:href="#DejaVuSans-14"/>
       <use xlink:href="#DejaVuSans-19" transform="translate(63.625 0)"/>
      </g>
     </g>
    </g>
    <g id="xtick_6">
     <g id="line2d_11">
      <path d="M 287.623398 166.633359 
L 287.623398 21.558281 
" clip-path="url(#p5e09171a1b)" style="fill: none; stroke-dasharray: 0.4,0.66; stroke-dashoffset: 0; stroke: #b0b0b0; stroke-opacity: 0.35; stroke-width: 0.4"/>
     </g>
     <g id="line2d_12">
      <g>
       <use xlink:href="#m9528cace82" x="287.623398" y="166.633359" style="stroke: #000000; stroke-width: 0.8"/>
      </g>
     </g>
     <g id="text_6">
      <!-- 32 -->
      <g transform="translate(281.260898 181.231016) scale(0.1 -0.1)">
       <defs>
        <path id="DejaVuSans-16" d="M 2597 2516 
Q 3050 2419 3304 2112 
Q 3559 1806 3559 1356 
Q 3559 666 3084 287 
Q 2609 -91 1734 -91 
Q 1441 -91 1130 -33 
Q 819 25 488 141 
L 488 750 
Q 750 597 1062 519 
Q 1375 441 1716 441 
Q 2309 441 2620 675 
Q 2931 909 2931 1356 
Q 2931 1769 2642 2001 
Q 2353 2234 1838 2234 
L 1294 2234 
L 1294 2753 
L 1863 2753 
Q 2328 2753 2575 2939 
Q 2822 3125 2822 3475 
Q 2822 3834 2567 4026 
Q 2313 4219 1838 4219 
Q 1578 4219 1281 4162 
Q 984 4106 628 3988 
L 628 4550 
Q 988 4650 1302 4700 
Q 1616 4750 1894 4750 
Q 2613 4750 3031 4423 
Q 3450 4097 3450 3541 
Q 3450 3153 3228 2886 
Q 3006 2619 2597 2516 
z
" transform="scale(0.015625)"/>
       </defs>
       <use xlink:href="#DejaVuSans-16"/>
       <use xlink:href="#DejaVuSans-15" transform="translate(63.625 0)"/>
      </g>
     </g>
    </g>
    <g id="text_7">
     <!-- Concurrent workflows -->
     <g transform="translate(110.843008 195.991641) scale(0.11 -0.11)">
      <defs>
       <path id="DejaVuSans-26" d="M 4122 4306 
L 4122 3641 
Q 3803 3938 3442 4084 
Q 3081 4231 2675 4231 
Q 1875 4231 1450 3742 
Q 1025 3253 1025 2328 
Q 1025 1406 1450 917 
Q 1875 428 2675 428 
Q 3081 428 3442 575 
Q 3803 722 4122 1019 
L 4122 359 
Q 3791 134 3420 21 
Q 3050 -91 2638 -91 
Q 1578 -91 968 557 
Q 359 1206 359 2328 
Q 359 3453 968 4101 
Q 1578 4750 2638 4750 
Q 3056 4750 3426 4639 
Q 3797 4528 4122 4306 
z
" transform="scale(0.015625)"/>
       <path id="DejaVuSans-52" d="M 1959 3097 
Q 1497 3097 1228 2736 
Q 959 2375 959 1747 
Q 959 1119 1226 758 
Q 1494 397 1959 397 
Q 2419 397 2687 759 
Q 2956 1122 2956 1747 
Q 2956 2369 2687 2733 
Q 2419 3097 1959 3097 
z
M 1959 3584 
Q 2709 3584 3137 3096 
Q 3566 2609 3566 1747 
Q 3566 888 3137 398 
Q 2709 -91 1959 -91 
Q 1206 -91 779 398 
Q 353 888 353 1747 
Q 353 2609 779 3096 
Q 1206 3584 1959 3584 
z
" transform="scale(0.015625)"/>
       <path id="DejaVuSans-51" d="M 3513 2113 
L 3513 0 
L 2938 0 
L 2938 2094 
Q 2938 2591 2744 2837 
Q 2550 3084 2163 3084 
Q 1697 3084 1428 2787 
Q 1159 2491 1159 1978 
L 1159 0 
L 581 0 
L 581 3500 
L 1159 3500 
L 1159 2956 
Q 1366 3272 1645 3428 
Q 1925 3584 2291 3584 
Q 2894 3584 3203 3211 
Q 3513 2838 3513 2113 
z
" transform="scale(0.015625)"/>
       <path id="DejaVuSans-46" d="M 3122 3366 
L 3122 2828 
Q 2878 2963 2633 3030 
Q 2388 3097 2138 3097 
Q 1578 3097 1268 2742 
Q 959 2388 959 1747 
Q 959 1106 1268 751 
Q 1578 397 2138 397 
Q 2388 397 2633 464 
Q 2878 531 3122 666 
L 3122 134 
Q 2881 22 2623 -34 
Q 2366 -91 2075 -91 
Q 1284 -91 818 406 
Q 353 903 353 1747 
Q 353 2603 823 3093 
Q 1294 3584 2113 3584 
Q 2378 3584 2631 3529 
Q 2884 3475 3122 3366 
z
" transform="scale(0.015625)"/>
       <path id="DejaVuSans-58" d="M 544 1381 
L 544 3500 
L 1119 3500 
L 1119 1403 
Q 1119 906 1312 657 
Q 1506 409 1894 409 
Q 2359 409 2629 706 
Q 2900 1003 2900 1516 
L 2900 3500 
L 3475 3500 
L 3475 0 
L 2900 0 
L 2900 538 
Q 2691 219 2414 64 
Q 2138 -91 1772 -91 
Q 1169 -91 856 284 
Q 544 659 544 1381 
z
M 1991 3584 
L 1991 3584 
z
" transform="scale(0.015625)"/>
       <path id="DejaVuSans-55" d="M 2631 2963 
Q 2534 3019 2420 3045 
Q 2306 3072 2169 3072 
Q 1681 3072 1420 2755 
Q 1159 2438 1159 1844 
L 1159 0 
L 581 0 
L 581 3500 
L 1159 3500 
L 1159 2956 
Q 1341 3275 1631 3429 
Q 1922 3584 2338 3584 
Q 2397 3584 2469 3576 
Q 2541 3569 2628 3553 
L 2631 2963 
z
" transform="scale(0.015625)"/>
       <path id="DejaVuSans-48" d="M 3597 1894 
L 3597 1613 
L 953 1613 
Q 991 1019 1311 708 
Q 1631 397 2203 397 
Q 2534 397 2845 478 
Q 3156 559 3463 722 
L 3463 178 
Q 3153 47 2828 -22 
Q 2503 -91 2169 -91 
Q 1331 -91 842 396 
Q 353 884 353 1716 
Q 353 2575 817 3079 
Q 1281 3584 2069 3584 
Q 2775 3584 3186 3129 
Q 3597 2675 3597 1894 
z
M 3022 2063 
Q 3016 2534 2758 2815 
Q 2500 3097 2075 3097 
Q 1594 3097 1305 2825 
Q 1016 2553 972 2059 
L 3022 2063 
z
" transform="scale(0.015625)"/>
       <path id="DejaVuSans-57" d="M 1172 4494 
L 1172 3500 
L 2356 3500 
L 2356 3053 
L 1172 3053 
L 1172 1153 
Q 1172 725 1289 603 
Q 1406 481 1766 481 
L 2356 481 
L 2356 0 
L 1766 0 
Q 1100 0 847 248 
Q 594 497 594 1153 
L 594 3053 
L 172 3053 
L 172 3500 
L 594 3500 
L 594 4494 
L 1172 4494 
z
" transform="scale(0.015625)"/>
       <path id="DejaVuSans-3" transform="scale(0.015625)"/>
       <path id="DejaVuSans-5a" d="M 269 3500 
L 844 3500 
L 1563 769 
L 2278 3500 
L 2956 3500 
L 3675 769 
L 4391 3500 
L 4966 3500 
L 4050 0 
L 3372 0 
L 2619 2869 
L 1863 0 
L 1184 0 
L 269 3500 
z
" transform="scale(0.015625)"/>
       <path id="DejaVuSans-4e" d="M 581 4863 
L 1159 4863 
L 1159 1991 
L 2875 3500 
L 3609 3500 
L 1753 1863 
L 3688 0 
L 2938 0 
L 1159 1709 
L 1159 0 
L 581 0 
L 581 4863 
z
" transform="scale(0.015625)"/>
       <path id="DejaVuSans-13b0" d="M 1831 4863 
L 3431 4863 
L 3431 0 
L 2853 0 
L 2853 4384 
L 1825 4384 
Q 1516 4384 1395 4259 
Q 1275 4134 1275 3809 
L 1275 3500 
L 2222 3500 
L 2222 3053 
L 1275 3053 
L 1275 0 
L 697 0 
L 697 3053 
L 147 3053 
L 147 3500 
L 697 3500 
L 697 3744 
Q 697 4328 969 4595 
Q 1241 4863 1831 4863 
z
" transform="scale(0.015625)"/>
       <path id="DejaVuSans-56" d="M 2834 3397 
L 2834 2853 
Q 2591 2978 2328 3040 
Q 2066 3103 1784 3103 
Q 1356 3103 1142 2972 
Q 928 2841 928 2578 
Q 928 2378 1081 2264 
Q 1234 2150 1697 2047 
L 1894 2003 
Q 2506 1872 2764 1633 
Q 3022 1394 3022 966 
Q 3022 478 2636 193 
Q 2250 -91 1575 -91 
Q 1294 -91 989 -36 
Q 684 19 347 128 
L 347 722 
Q 666 556 975 473 
Q 1284 391 1588 391 
Q 1994 391 2212 530 
Q 2431 669 2431 922 
Q 2431 1156 2273 1281 
Q 2116 1406 1581 1522 
L 1381 1569 
Q 847 1681 609 1914 
Q 372 2147 372 2553 
Q 372 3047 722 3315 
Q 1072 3584 1716 3584 
Q 2034 3584 2315 3537 
Q 2597 3491 2834 3397 
z
" transform="scale(0.015625)"/>
      </defs>
      <use xlink:href="#DejaVuSans-26"/>
      <use xlink:href="#DejaVuSans-52" transform="translate(69.828125 0)"/>
      <use xlink:href="#DejaVuSans-51" transform="translate(131.015625 0)"/>
      <use xlink:href="#DejaVuSans-46" transform="translate(194.390625 0)"/>
      <use xlink:href="#DejaVuSans-58" transform="translate(249.375 0)"/>
      <use xlink:href="#DejaVuSans-55" transform="translate(312.75 0)"/>
      <use xlink:href="#DejaVuSans-55" transform="translate(352.109375 0)"/>
      <use xlink:href="#DejaVuSans-48" transform="translate(391.015625 0)"/>
      <use xlink:href="#DejaVuSans-51" transform="translate(452.546875 0)"/>
      <use xlink:href="#DejaVuSans-57" transform="translate(515.921875 0)"/>
      <use xlink:href="#DejaVuSans-3" transform="translate(555.125 0)"/>
      <use xlink:href="#DejaVuSans-5a" transform="translate(586.90625 0)"/>
      <use xlink:href="#DejaVuSans-52" transform="translate(668.6875 0)"/>
      <use xlink:href="#DejaVuSans-55" transform="translate(729.875 0)"/>
      <use xlink:href="#DejaVuSans-4e" transform="translate(770.984375 0)"/>
      <use xlink:href="#DejaVuSans-13b0" transform="translate(828.890625 0)"/>
      <use xlink:href="#DejaVuSans-52" transform="translate(891.875 0)"/>
      <use xlink:href="#DejaVuSans-5a" transform="translate(953.0625 0)"/>
      <use xlink:href="#DejaVuSans-56" transform="translate(1034.84375 0)"/>
     </g>
    </g>
   </g>
   <g id="matplotlib.axis_2">
    <g id="ytick_1">
     <g id="line2d_13">
      <path d="M 41.925859 166.633359 
L 299.323281 166.633359 
" clip-path="url(#p5e09171a1b)" style="fill: none; stroke-dasharray: 1.85,0.8; stroke-dashoffset: 0; stroke: #b0b0b0; stroke-opacity: 0.5; stroke-width: 0.5"/>
     </g>
     <g id="line2d_14">
      <defs>
       <path id="m276697ed8b" d="M 0 0 
L -3.5 0 
" style="stroke: #000000; stroke-width: 0.8"/>
      </defs>
      <g>
       <use xlink:href="#m276697ed8b" x="41.925859" y="166.633359" style="stroke: #000000; stroke-width: 0.8"/>
      </g>
     </g>
     <g id="text_8">
      <!-- 0 -->
      <g transform="translate(28.563359 170.432187) scale(0.1 -0.1)">
       <defs>
        <path id="DejaVuSans-13" d="M 2034 4250 
Q 1547 4250 1301 3770 
Q 1056 3291 1056 2328 
Q 1056 1369 1301 889 
Q 1547 409 2034 409 
Q 2525 409 2770 889 
Q 3016 1369 3016 2328 
Q 3016 3291 2770 3770 
Q 2525 4250 2034 4250 
z
M 2034 4750 
Q 2819 4750 3233 4129 
Q 3647 3509 3647 2328 
Q 3647 1150 3233 529 
Q 2819 -91 2034 -91 
Q 1250 -91 836 529 
Q 422 1150 422 2328 
Q 422 3509 836 4129 
Q 1250 4750 2034 4750 
z
" transform="scale(0.015625)"/>
       </defs>
       <use xlink:href="#DejaVuSans-13"/>
      </g>
     </g>
    </g>
    <g id="ytick_2">
     <g id="line2d_15">
      <path d="M 41.925859 143.726768 
L 299.323281 143.726768 
" clip-path="url(#p5e09171a1b)" style="fill: none; stroke-dasharray: 1.85,0.8; stroke-dashoffset: 0; stroke: #b0b0b0; stroke-opacity: 0.5; stroke-width: 0.5"/>
     </g>
     <g id="line2d_16">
      <g>
       <use xlink:href="#m276697ed8b" x="41.925859" y="143.726768" style="stroke: #000000; stroke-width: 0.8"/>
      </g>
     </g>
     <g id="text_9">
      <!-- 15 -->
      <g transform="translate(22.200859 147.525596) scale(0.1 -0.1)">
       <defs>
        <path id="DejaVuSans-18" d="M 691 4666 
L 3169 4666 
L 3169 4134 
L 1269 4134 
L 1269 2991 
Q 1406 3038 1543 3061 
Q 1681 3084 1819 3084 
Q 2600 3084 3056 2656 
Q 3513 2228 3513 1497 
Q 3513 744 3044 326 
Q 2575 -91 1722 -91 
Q 1428 -91 1123 -41 
Q 819 9 494 109 
L 494 744 
Q 775 591 1075 516 
Q 1375 441 1709 441 
Q 2250 441 2565 725 
Q 2881 1009 2881 1497 
Q 2881 1984 2565 2268 
Q 2250 2553 1709 2553 
Q 1456 2553 1204 2497 
Q 953 2441 691 2322 
L 691 4666 
z
" transform="scale(0.015625)"/>
       </defs>
       <use xlink:href="#DejaVuSans-14"/>
       <use xlink:href="#DejaVuSans-18" transform="translate(63.625 0)"/>
      </g>
     </g>
    </g>
    <g id="ytick_3">
     <g id="line2d_17">
      <path d="M 41.925859 120.820177 
L 299.323281 120.820177 
" clip-path="url(#p5e09171a1b)" style="fill: none; stroke-dasharray: 1.85,0.8; stroke-dashoffset: 0; stroke: #b0b0b0; stroke-opacity: 0.5; stroke-width: 0.5"/>
     </g>
     <g id="line2d_18">
      <g>
       <use xlink:href="#m276697ed8b" x="41.925859" y="120.820177" style="stroke: #000000; stroke-width: 0.8"/>
      </g>
     </g>
     <g id="text_10">
      <!-- 30 -->
      <g transform="translate(22.200859 124.619005) scale(0.1 -0.1)">
       <use xlink:href="#DejaVuSans-16"/>
       <use xlink:href="#DejaVuSans-13" transform="translate(63.625 0)"/>
      </g>
     </g>
    </g>
    <g id="ytick_4">
     <g id="line2d_19">
      <path d="M 41.925859 97.913586 
L 299.323281 97.913586 
" clip-path="url(#p5e09171a1b)" style="fill: none; stroke-dasharray: 1.85,0.8; stroke-dashoffset: 0; stroke: #b0b0b0; stroke-opacity: 0.5; stroke-width: 0.5"/>
     </g>
     <g id="line2d_20">
      <g>
       <use xlink:href="#m276697ed8b" x="41.925859" y="97.913586" style="stroke: #000000; stroke-width: 0.8"/>
      </g>
     </g>
     <g id="text_11">
      <!-- 45 -->
      <g transform="translate(22.200859 101.712414) scale(0.1 -0.1)">
       <use xlink:href="#DejaVuSans-17"/>
       <use xlink:href="#DejaVuSans-18" transform="translate(63.625 0)"/>
      </g>
     </g>
    </g>
    <g id="ytick_5">
     <g id="line2d_21">
      <path d="M 41.925859 75.006994 
L 299.323281 75.006994 
" clip-path="url(#p5e09171a1b)" style="fill: none; stroke-dasharray: 1.85,0.8; stroke-dashoffset: 0; stroke: #b0b0b0; stroke-opacity: 0.5; stroke-width: 0.5"/>
     </g>
     <g id="line2d_22">
      <g>
       <use xlink:href="#m276697ed8b" x="41.925859" y="75.006994" style="stroke: #000000; stroke-width: 0.8"/>
      </g>
     </g>
     <g id="text_12">
      <!-- 60 -->
      <g transform="translate(22.200859 78.805822) scale(0.1 -0.1)">
       <use xlink:href="#DejaVuSans-19"/>
       <use xlink:href="#DejaVuSans-13" transform="translate(63.625 0)"/>
      </g>
     </g>
    </g>
    <g id="ytick_6">
     <g id="line2d_23">
      <path d="M 41.925859 52.100403 
L 299.323281 52.100403 
" clip-path="url(#p5e09171a1b)" style="fill: none; stroke-dasharray: 1.85,0.8; stroke-dashoffset: 0; stroke: #b0b0b0; stroke-opacity: 0.5; stroke-width: 0.5"/>
     </g>
     <g id="line2d_24">
      <g>
       <use xlink:href="#m276697ed8b" x="41.925859" y="52.100403" style="stroke: #000000; stroke-width: 0.8"/>
      </g>
     </g>
     <g id="text_13">
      <!-- 75 -->
      <g transform="translate(22.200859 55.899231) scale(0.1 -0.1)">
       <defs>
        <path id="DejaVuSans-1a" d="M 525 4666 
L 3525 4666 
L 3525 4397 
L 1831 0 
L 1172 0 
L 2766 4134 
L 525 4134 
L 525 4666 
z
" transform="scale(0.015625)"/>
       </defs>
       <use xlink:href="#DejaVuSans-1a"/>
       <use xlink:href="#DejaVuSans-18" transform="translate(63.625 0)"/>
      </g>
     </g>
    </g>
    <g id="ytick_7">
     <g id="line2d_25">
      <path d="M 41.925859 29.193812 
L 299.323281 29.193812 
" clip-path="url(#p5e09171a1b)" style="fill: none; stroke-dasharray: 1.85,0.8; stroke-dashoffset: 0; stroke: #b0b0b0; stroke-opacity: 0.5; stroke-width: 0.5"/>
     </g>
     <g id="line2d_26">
      <g>
       <use xlink:href="#m276697ed8b" x="41.925859" y="29.193812" style="stroke: #000000; stroke-width: 0.8"/>
      </g>
     </g>
     <g id="text_14">
      <!-- 90 -->
      <g transform="translate(22.200859 32.99264) scale(0.1 -0.1)">
       <defs>
        <path id="DejaVuSans-1c" d="M 703 97 
L 703 672 
Q 941 559 1184 500 
Q 1428 441 1663 441 
Q 2288 441 2617 861 
Q 2947 1281 2994 2138 
Q 2813 1869 2534 1725 
Q 2256 1581 1919 1581 
Q 1219 1581 811 2004 
Q 403 2428 403 3163 
Q 403 3881 828 4315 
Q 1253 4750 1959 4750 
Q 2769 4750 3195 4129 
Q 3622 3509 3622 2328 
Q 3622 1225 3098 567 
Q 2575 -91 1691 -91 
Q 1453 -91 1209 -44 
Q 966 3 703 97 
z
M 1959 2075 
Q 2384 2075 2632 2365 
Q 2881 2656 2881 3163 
Q 2881 3666 2632 3958 
Q 2384 4250 1959 4250 
Q 1534 4250 1286 3958 
Q 1038 3666 1038 3163 
Q 1038 2656 1286 2365 
Q 1534 2075 1959 2075 
z
" transform="scale(0.015625)"/>
       </defs>
       <use xlink:href="#DejaVuSans-1c"/>
       <use xlink:href="#DejaVuSans-13" transform="translate(63.625 0)"/>
      </g>
     </g>
    </g>
    <g id="text_15">
     <!-- Cache hit ratio (%) -->
     <g transform="translate(15.558281 145.813008) rotate(-90) scale(0.11 -0.11)">
      <defs>
       <path id="DejaVuSans-44" d="M 2194 1759 
Q 1497 1759 1228 1600 
Q 959 1441 959 1056 
Q 959 750 1161 570 
Q 1363 391 1709 391 
Q 2188 391 2477 730 
Q 2766 1069 2766 1631 
L 2766 1759 
L 2194 1759 
z
M 3341 1997 
L 3341 0 
L 2766 0 
L 2766 531 
Q 2569 213 2275 61 
Q 1981 -91 1556 -91 
Q 1019 -91 701 211 
Q 384 513 384 1019 
Q 384 1609 779 1909 
Q 1175 2209 1959 2209 
L 2766 2209 
L 2766 2266 
Q 2766 2663 2505 2880 
Q 2244 3097 1772 3097 
Q 1472 3097 1187 3025 
Q 903 2953 641 2809 
L 641 3341 
Q 956 3463 1253 3523 
Q 1550 3584 1831 3584 
Q 2591 3584 2966 3190 
Q 3341 2797 3341 1997 
z
" transform="scale(0.015625)"/>
       <path id="DejaVuSans-4b" d="M 3513 2113 
L 3513 0 
L 2938 0 
L 2938 2094 
Q 2938 2591 2744 2837 
Q 2550 3084 2163 3084 
Q 1697 3084 1428 2787 
Q 1159 2491 1159 1978 
L 1159 0 
L 581 0 
L 581 4863 
L 1159 4863 
L 1159 2956 
Q 1366 3272 1645 3428 
Q 1925 3584 2291 3584 
Q 2894 3584 3203 3211 
Q 3513 2838 3513 2113 
z
" transform="scale(0.015625)"/>
       <path id="DejaVuSans-4c" d="M 603 3500 
L 1178 3500 
L 1178 0 
L 603 0 
L 603 3500 
z
M 603 4863 
L 1178 4863 
L 1178 4134 
L 603 4134 
L 603 4863 
z
" transform="scale(0.015625)"/>
       <path id="DejaVuSans-b" d="M 1984 4856 
Q 1566 4138 1362 3434 
Q 1159 2731 1159 2009 
Q 1159 1288 1364 580 
Q 1569 -128 1984 -844 
L 1484 -844 
Q 1016 -109 783 600 
Q 550 1309 550 2009 
Q 550 2706 781 3412 
Q 1013 4119 1484 4856 
L 1984 4856 
z
" transform="scale(0.015625)"/>
       <path id="DejaVuSans-8" d="M 4653 2053 
Q 4381 2053 4226 1822 
Q 4072 1591 4072 1178 
Q 4072 772 4226 539 
Q 4381 306 4653 306 
Q 4919 306 5073 539 
Q 5228 772 5228 1178 
Q 5228 1588 5073 1820 
Q 4919 2053 4653 2053 
z
M 4653 2450 
Q 5147 2450 5437 2106 
Q 5728 1763 5728 1178 
Q 5728 594 5436 251 
Q 5144 -91 4653 -91 
Q 4153 -91 3862 251 
Q 3572 594 3572 1178 
Q 3572 1766 3864 2108 
Q 4156 2450 4653 2450 
z
M 1428 4353 
Q 1159 4353 1004 4120 
Q 850 3888 850 3481 
Q 850 3069 1003 2837 
Q 1156 2606 1428 2606 
Q 1700 2606 1854 2837 
Q 2009 3069 2009 3481 
Q 2009 3884 1853 4118 
Q 1697 4353 1428 4353 
z
M 4250 4750 
L 4750 4750 
L 1831 -91 
L 1331 -91 
L 4250 4750 
z
M 1428 4750 
Q 1922 4750 2215 4408 
Q 2509 4066 2509 3481 
Q 2509 2891 2217 2550 
Q 1925 2209 1428 2209 
Q 931 2209 642 2551 
Q 353 2894 353 3481 
Q 353 4063 643 4406 
Q 934 4750 1428 4750 
z
" transform="scale(0.015625)"/>
       <path id="DejaVuSans-c" d="M 513 4856 
L 1013 4856 
Q 1481 4119 1714 3412 
Q 1947 2706 1947 2009 
Q 1947 1309 1714 600 
Q 1481 -109 1013 -844 
L 513 -844 
Q 928 -128 1133 580 
Q 1338 1288 1338 2009 
Q 1338 2731 1133 3434 
Q 928 4138 513 4856 
z
" transform="scale(0.015625)"/>
      </defs>
      <use xlink:href="#DejaVuSans-26"/>
      <use xlink:href="#DejaVuSans-44" transform="translate(69.828125 0)"/>
      <use xlink:href="#DejaVuSans-46" transform="translate(131.109375 0)"/>
      <use xlink:href="#DejaVuSans-4b" transform="translate(186.09375 0)"/>
      <use xlink:href="#DejaVuSans-48" transform="translate(249.46875 0)"/>
      <use xlink:href="#DejaVuSans-3" transform="translate(311 0)"/>
      <use xlink:href="#DejaVuSans-4b" transform="translate(342.78125 0)"/>
      <use xlink:href="#DejaVuSans-4c" transform="translate(406.15625 0)"/>
      <use xlink:href="#DejaVuSans-57" transform="translate(433.9375 0)"/>
      <use xlink:href="#DejaVuSans-3" transform="translate(473.140625 0)"/>
      <use xlink:href="#DejaVuSans-55" transform="translate(504.921875 0)"/>
      <use xlink:href="#DejaVuSans-44" transform="translate(546.03125 0)"/>
      <use xlink:href="#DejaVuSans-57" transform="translate(607.3125 0)"/>
      <use xlink:href="#DejaVuSans-4c" transform="translate(646.515625 0)"/>
      <use xlink:href="#DejaVuSans-52" transform="translate(674.296875 0)"/>
      <use xlink:href="#DejaVuSans-3" transform="translate(735.484375 0)"/>
      <use xlink:href="#DejaVuSans-b" transform="translate(767.265625 0)"/>
      <use xlink:href="#DejaVuSans-8" transform="translate(806.28125 0)"/>
      <use xlink:href="#DejaVuSans-c" transform="translate(901.296875 0)"/>
     </g>
    </g>
   </g>
   <g id="FillBetweenPolyCollection_1">
    <defs>
     <path id="m3b9349319f" d="M 53.625742 -168.398218 
L 53.625742 -166.184282 
L 100.425273 -161.837746 
L 147.224805 -150.827773 
L 194.024336 -138.46112 
L 240.823867 -123.148199 
L 287.623398 -97.990603 
L 287.623398 -101.493464 
L 287.623398 -101.493464 
L 240.823867 -128.487637 
L 194.024336 -144.469879 
L 147.224805 -155.500687 
L 100.425273 -164.319108 
L 53.625742 -168.398218 
z
"/>
    </defs>
    <g clip-path="url(#p5e09171a1b)">
     <use xlink:href="#m3b9349319f" x="0" y="205.834219" style="fill: #0072b2; fill-opacity: 0.12"/>
    </g>
   </g>
   <g id="FillBetweenPolyCollection_2">
    <defs>
     <path id="m9cd50659e7" d="M 53.625742 -113.542939 
L 53.625742 -110.453076 
L 100.425273 -97.75946 
L 147.224805 -89.334768 
L 194.024336 -72.623862 
L 240.823867 -59.999922 
L 287.623398 -49.012021 
L 287.623398 -54.295753 
L 287.623398 -54.295753 
L 240.823867 -65.560794 
L 194.024336 -76.245582 
L 147.224805 -93.184853 
L 100.425273 -102.148983 
L 53.625742 -113.542939 
z
"/>
    </defs>
    <g clip-path="url(#p5e09171a1b)">
     <use xlink:href="#m9cd50659e7" x="0" y="205.834219" style="fill: #d55e00; fill-opacity: 0.12"/>
    </g>
   </g>
   <g id="FillBetweenPolyCollection_3">
    <defs>
     <path id="m73abb0a158" d="M 53.625742 -148.668183 
L 53.625742 -144.598705 
L 100.425273 -139.613293 
L 147.224805 -124.633966 
L 194.024336 -111.502294 
L 240.823867 -93.425528 
L 287.623398 -82.145929 
L 287.623398 -87.311896 
L 287.623398 -87.311896 
L 240.823867 -97.549681 
L 194.024336 -114.716221 
L 147.224805 -129.110402 
L 100.425273 -141.513734 
L 53.625742 -148.668183 
z
"/>
    </defs>
    <g clip-path="url(#p5e09171a1b)">
     <use xlink:href="#m73abb0a158" x="0" y="205.834219" style="fill: #009e73; fill-opacity: 0.12"/>
    </g>
   </g>
   <g id="FillBetweenPolyCollection_4">
    <defs>
     <path id="mc3f737b13a" d="M 53.625742 -163.075516 
L 53.625742 -159.737222 
L 100.425273 -151.240916 
L 147.224805 -142.706651 
L 194.024336 -131.699642 
L 240.823867 -108.550751 
L 287.623398 -94.240814 
L 287.623398 -98.20015 
L 287.623398 -98.20015 
L 240.823867 -113.145853 
L 194.024336 -135.790127 
L 147.224805 -145.781164 
L 100.425273 -153.967413 
L 53.625742 -163.075516 
z
"/>
    </defs>
    <g clip-path="url(#p5e09171a1b)">
     <use xlink:href="#mc3f737b13a" x="0" y="205.834219" style="fill: #cc79a7; fill-opacity: 0.12"/>
    </g>
   </g>
   <g id="patch_3">
    <path d="M 41.925859 166.633359 
L 41.925859 21.558281 
" style="fill: none; stroke: #000000; stroke-width: 0.8; stroke-linejoin: miter; stroke-linecap: square"/>
   </g>
   <g id="patch_4">
    <path d="M 41.925859 166.633359 
L 299.323281 166.633359 
" style="fill: none; stroke: #000000; stroke-width: 0.8; stroke-linejoin: miter; stroke-linecap: square"/>
   </g>
   <g id="line2d_27">
    <path d="M 53.625742 38.542969 
L 100.425273 42.755792 
L 147.224805 52.669989 
L 194.024336 64.368719 
L 240.823867 80.0163 
L 287.623398 106.092185 
" clip-path="url(#p5e09171a1b)" style="fill: none; stroke: #0072b2; stroke-width: 1.4; stroke-linecap: square"/>
    <defs>
     <path id="m84988c7e8c" d="M 0 2 
C 0.530406 2 1.03916 1.789267 1.414214 1.414214 
C 1.789267 1.03916 2 0.530406 2 0 
C 2 -0.530406 1.789267 -1.03916 1.414214 -1.414214 
C 1.03916 -1.789267 0.530406 -2 0 -2 
C -0.530406 -2 -1.03916 -1.789267 -1.414214 -1.414214 
C -1.789267 -1.03916 -2 -0.530406 -2 0 
C -2 0.530406 -1.789267 1.03916 -1.414214 1.414214 
C -1.03916 1.789267 -0.530406 2 0 2 
z
" style="stroke: #0072b2"/>
    </defs>
    <g clip-path="url(#p5e09171a1b)">
     <use xlink:href="#m84988c7e8c" x="53.625742" y="38.542969" style="fill: #0072b2; stroke: #0072b2"/>
     <use xlink:href="#m84988c7e8c" x="100.425273" y="42.755792" style="fill: #0072b2; stroke: #0072b2"/>
     <use xlink:href="#m84988c7e8c" x="147.224805" y="52.669989" style="fill: #0072b2; stroke: #0072b2"/>
     <use xlink:href="#m84988c7e8c" x="194.024336" y="64.368719" style="fill: #0072b2; stroke: #0072b2"/>
     <use xlink:href="#m84988c7e8c" x="240.823867" y="80.0163" style="fill: #0072b2; stroke: #0072b2"/>
     <use xlink:href="#m84988c7e8c" x="287.623398" y="106.092185" style="fill: #0072b2; stroke: #0072b2"/>
    </g>
   </g>
   <g id="line2d_28">
    <path d="M 53.625742 93.836211 
L 100.425273 105.879997 
L 147.224805 114.574408 
L 194.024336 131.399497 
L 240.823867 143.053861 
L 287.623398 154.180331 
" clip-path="url(#p5e09171a1b)" style="fill: none; stroke: #d55e00; stroke-width: 1.4; stroke-linecap: square"/>
    <defs>
     <path id="mb8ae3da339" d="M -2 2 
L 2 2 
L 2 -2 
L -2 -2 
z
" style="stroke: #d55e00; stroke-linejoin: miter"/>
    </defs>
    <g clip-path="url(#p5e09171a1b)">
     <use xlink:href="#mb8ae3da339" x="53.625742" y="93.836211" style="fill: #d55e00; stroke: #d55e00; stroke-linejoin: miter"/>
     <use xlink:href="#mb8ae3da339" x="100.425273" y="105.879997" style="fill: #d55e00; stroke: #d55e00; stroke-linejoin: miter"/>
     <use xlink:href="#mb8ae3da339" x="147.224805" y="114.574408" style="fill: #d55e00; stroke: #d55e00; stroke-linejoin: miter"/>
     <use xlink:href="#mb8ae3da339" x="194.024336" y="131.399497" style="fill: #d55e00; stroke: #d55e00; stroke-linejoin: miter"/>
     <use xlink:href="#mb8ae3da339" x="240.823867" y="143.053861" style="fill: #d55e00; stroke: #d55e00; stroke-linejoin: miter"/>
     <use xlink:href="#mb8ae3da339" x="287.623398" y="154.180331" style="fill: #d55e00; stroke: #d55e00; stroke-linejoin: miter"/>
    </g>
   </g>
   <g id="line2d_29">
    <path d="M 53.625742 59.200775 
L 100.425273 65.270706 
L 147.224805 78.962035 
L 194.024336 92.724961 
L 240.823867 110.346614 
L 287.623398 121.105306 
" clip-path="url(#p5e09171a1b)" style="fill: none; stroke: #009e73; stroke-width: 1.4; stroke-linecap: square"/>
    <defs>
     <path id="m93258b9ebc" d="M 0 -2 
L -2 2 
L 2 2 
z
" style="stroke: #009e73; stroke-linejoin: miter"/>
    </defs>
    <g clip-path="url(#p5e09171a1b)">
     <use xlink:href="#m93258b9ebc" x="53.625742" y="59.200775" style="fill: #009e73; stroke: #009e73; stroke-linejoin: miter"/>
     <use xlink:href="#m93258b9ebc" x="100.425273" y="65.270706" style="fill: #009e73; stroke: #009e73; stroke-linejoin: miter"/>
     <use xlink:href="#m93258b9ebc" x="147.224805" y="78.962035" style="fill: #009e73; stroke: #009e73; stroke-linejoin: miter"/>
     <use xlink:href="#m93258b9ebc" x="194.024336" y="92.724961" style="fill: #009e73; stroke: #009e73; stroke-linejoin: miter"/>
     <use xlink:href="#m93258b9ebc" x="240.823867" y="110.346614" style="fill: #009e73; stroke: #009e73; stroke-linejoin: miter"/>
     <use xlink:href="#m93258b9ebc" x="287.623398" y="121.105306" style="fill: #009e73; stroke: #009e73; stroke-linejoin: miter"/>
    </g>
   </g>
   <g id="line2d_30">
    <path d="M 53.625742 44.42785 
L 100.425273 53.230054 
L 147.224805 61.590311 
L 194.024336 72.089334 
L 240.823867 94.985917 
L 287.623398 109.613737 
" clip-path="url(#p5e09171a1b)" style="fill: none; stroke: #cc79a7; stroke-width: 1.4; stroke-linecap: square"/>
    <defs>
     <path id="m2a68597197" d="M -0 2.828427 
L 2.828427 0 
L 0 -2.828427 
L -2.828427 -0 
z
" style="stroke: #cc79a7; stroke-linejoin: miter"/>
    </defs>
    <g clip-path="url(#p5e09171a1b)">
     <use xlink:href="#m2a68597197" x="53.625742" y="44.42785" style="fill: #cc79a7; stroke: #cc79a7; stroke-linejoin: miter"/>
     <use xlink:href="#m2a68597197" x="100.425273" y="53.230054" style="fill: #cc79a7; stroke: #cc79a7; stroke-linejoin: miter"/>
     <use xlink:href="#m2a68597197" x="147.224805" y="61.590311" style="fill: #cc79a7; stroke: #cc79a7; stroke-linejoin: miter"/>
     <use xlink:href="#m2a68597197" x="194.024336" y="72.089334" style="fill: #cc79a7; stroke: #cc79a7; stroke-linejoin: miter"/>
     <use xlink:href="#m2a68597197" x="240.823867" y="94.985917" style="fill: #cc79a7; stroke: #cc79a7; stroke-linejoin: miter"/>
     <use xlink:href="#m2a68597197" x="287.623398" y="109.613737" style="fill: #cc79a7; stroke: #cc79a7; stroke-linejoin: miter"/>
    </g>
   </g>
   <g id="patch_5">
    <path d="M 160.47162 133.267845 
Q 176.250653 132.389206 191.136642 131.560295 
" style="fill: none; stroke: #000000; stroke-width: 0.8; stroke-linecap: round"/>
    <path d="M 187.852635 130.140683 
L 191.136642 131.560295 
L 188.030548 133.335733 
" style="fill: none; stroke: #000000; stroke-width: 0.8; stroke-linecap: round"/>
   </g>
   <g id="text_16">
    <!-- Executor degrades first -->
    <g transform="translate(63.062112 128.567488) scale(0.08 -0.08)">
     <defs>
      <path id="DejaVuSans-28" d="M 628 4666 
L 3578 4666 
L 3578 4134 
L 1259 4134 
L 1259 2753 
L 3481 2753 
L 3481 2222 
L 1259 2222 
L 1259 531 
L 3634 531 
L 3634 0 
L 628 0 
L 628 4666 
z
" transform="scale(0.015625)"/>
      <path id="DejaVuSans-5b" d="M 3513 3500 
L 2247 1797 
L 3578 0 
L 2900 0 
L 1881 1375 
L 863 0 
L 184 0 
L 1544 1831 
L 300 3500 
L 978 3500 
L 1906 2253 
L 2834 3500 
L 3513 3500 
z
" transform="scale(0.015625)"/>
      <path id="DejaVuSans-47" d="M 2906 2969 
L 2906 4863 
L 3481 4863 
L 3481 0 
L 2906 0 
L 2906 525 
Q 2725 213 2448 61 
Q 2172 -91 1784 -91 
Q 1150 -91 751 415 
Q 353 922 353 1747 
Q 353 2572 751 3078 
Q 1150 3584 1784 3584 
Q 2172 3584 2448 3432 
Q 2725 3281 2906 2969 
z
M 947 1747 
Q 947 1113 1208 752 
Q 1469 391 1925 391 
Q 2381 391 2643 752 
Q 2906 1113 2906 1747 
Q 2906 2381 2643 2742 
Q 2381 3103 1925 3103 
Q 1469 3103 1208 2742 
Q 947 2381 947 1747 
z
" transform="scale(0.015625)"/>
      <path id="DejaVuSans-4a" d="M 2906 1791 
Q 2906 2416 2648 2759 
Q 2391 3103 1925 3103 
Q 1463 3103 1205 2759 
Q 947 2416 947 1791 
Q 947 1169 1205 825 
Q 1463 481 1925 481 
Q 2391 481 2648 825 
Q 2906 1169 2906 1791 
z
M 3481 434 
Q 3481 -459 3084 -895 
Q 2688 -1331 1869 -1331 
Q 1566 -1331 1297 -1286 
Q 1028 -1241 775 -1147 
L 775 -588 
Q 1028 -725 1275 -790 
Q 1522 -856 1778 -856 
Q 2344 -856 2625 -561 
Q 2906 -266 2906 331 
L 2906 616 
Q 2728 306 2450 153 
Q 2172 0 1784 0 
Q 1141 0 747 490 
Q 353 981 353 1791 
Q 353 2603 747 3093 
Q 1141 3584 1784 3584 
Q 2172 3584 2450 3431 
Q 2728 3278 2906 2969 
L 2906 3500 
L 3481 3500 
L 3481 434 
z
" transform="scale(0.015625)"/>
      <path id="DejaVuSans-13af" d="M 3431 3500 
L 3431 0 
L 2853 0 
L 2853 3053 
L 1275 3053 
L 1275 0 
L 697 0 
L 697 3053 
L 147 3053 
L 147 3500 
L 697 3500 
L 697 3744 
Q 697 4316 967 4589 
Q 1238 4863 1797 4863 
L 2375 4863 
L 2375 4384 
L 1825 4384 
Q 1516 4384 1395 4259 
Q 1275 4134 1275 3809 
L 1275 3500 
L 3431 3500 
z
M 2853 4856 
L 3431 4856 
L 3431 4128 
L 2853 4128 
L 2853 4856 
z
" transform="scale(0.015625)"/>
     </defs>
     <use xlink:href="#DejaVuSans-28"/>
     <use xlink:href="#DejaVuSans-5b" transform="translate(63.1875 0)"/>
     <use xlink:href="#DejaVuSans-48" transform="translate(119.296875 0)"/>
     <use xlink:href="#DejaVuSans-46" transform="translate(180.828125 0)"/>
     <use xlink:href="#DejaVuSans-58" transform="translate(235.8125 0)"/>
     <use xlink:href="#DejaVuSans-57" transform="translate(299.1875 0)"/>
     <use xlink:href="#DejaVuSans-52" transform="translate(338.390625 0)"/>
     <use xlink:href="#DejaVuSans-55" transform="translate(399.578125 0)"/>
     <use xlink:href="#DejaVuSans-3" transform="translate(440.6875 0)"/>
     <use xlink:href="#DejaVuSans-47" transform="translate(472.46875 0)"/>
     <use xlink:href="#DejaVuSans-48" transform="translate(535.953125 0)"/>
     <use xlink:href="#DejaVuSans-4a" transform="translate(597.484375 0)"/>
     <use xlink:href="#DejaVuSans-55" transform="translate(660.96875 0)"/>
     <use xlink:href="#DejaVuSans-44" transform="translate(702.078125 0)"/>
     <use xlink:href="#DejaVuSans-47" transform="translate(763.359375 0)"/>
     <use xlink:href="#DejaVuSans-48" transform="translate(826.84375 0)"/>
     <use xlink:href="#DejaVuSans-56" transform="translate(888.375 0)"/>
     <use xlink:href="#DejaVuSans-3" transform="translate(940.46875 0)"/>
     <use xlink:href="#DejaVuSans-13af" transform="translate(972.25 0)"/>
     <use xlink:href="#DejaVuSans-55" transform="translate(1035.234375 0)"/>
     <use xlink:href="#DejaVuSans-56" transform="translate(1076.34375 0)"/>
     <use xlink:href="#DejaVuSans-57" transform="translate(1128.4375 0)"/>
    </g>
    <!-- under project-specific -->
    <g transform="translate(63.062112 138.169675) scale(0.08 -0.08)">
     <defs>
      <path id="DejaVuSans-53" d="M 1159 525 
L 1159 -1331 
L 581 -1331 
L 581 3500 
L 1159 3500 
L 1159 2969 
Q 1341 3281 1617 3432 
Q 1894 3584 2278 3584 
Q 2916 3584 3314 3078 
Q 3713 2572 3713 1747 
Q 3713 922 3314 415 
Q 2916 -91 2278 -91 
Q 1894 -91 1617 61 
Q 1341 213 1159 525 
z
M 3116 1747 
Q 3116 2381 2855 2742 
Q 2594 3103 2138 3103 
Q 1681 3103 1420 2742 
Q 1159 2381 1159 1747 
Q 1159 1113 1420 752 
Q 1681 391 2138 391 
Q 2594 391 2855 752 
Q 3116 1113 3116 1747 
z
" transform="scale(0.015625)"/>
      <path id="DejaVuSans-4d" d="M 603 3500 
L 1178 3500 
L 1178 -63 
Q 1178 -731 923 -1031 
Q 669 -1331 103 -1331 
L -116 -1331 
L -116 -844 
L 38 -844 
Q 366 -844 484 -692 
Q 603 -541 603 -63 
L 603 3500 
z
M 603 4863 
L 1178 4863 
L 1178 4134 
L 603 4134 
L 603 4863 
z
" transform="scale(0.015625)"/>
      <path id="DejaVuSans-10" d="M 313 2009 
L 1997 2009 
L 1997 1497 
L 313 1497 
L 313 2009 
z
" transform="scale(0.015625)"/>
     </defs>
     <use xlink:href="#DejaVuSans-58"/>
     <use xlink:href="#DejaVuSans-51" transform="translate(63.375 0)"/>
     <use xlink:href="#DejaVuSans-47" transform="translate(126.75 0)"/>
     <use xlink:href="#DejaVuSans-48" transform="translate(190.234375 0)"/>
     <use xlink:href="#DejaVuSans-55" transform="translate(251.765625 0)"/>
     <use xlink:href="#DejaVuSans-3" transform="translate(292.875 0)"/>
     <use xlink:href="#DejaVuSans-53" transform="translate(324.65625 0)"/>
     <use xlink:href="#DejaVuSans-55" transform="translate(388.140625 0)"/>
     <use xlink:href="#DejaVuSans-52" transform="translate(427.046875 0)"/>
     <use xlink:href="#DejaVuSans-4d" transform="translate(488.234375 0)"/>
     <use xlink:href="#DejaVuSans-48" transform="translate(516.015625 0)"/>
     <use xlink:href="#DejaVuSans-46" transform="translate(577.546875 0)"/>
     <use xlink:href="#DejaVuSans-57" transform="translate(632.53125 0)"/>
     <use xlink:href="#DejaVuSans-10" transform="translate(671.734375 0)"/>
     <use xlink:href="#DejaVuSans-56" transform="translate(707.8125 0)"/>
     <use xlink:href="#DejaVuSans-53" transform="translate(759.90625 0)"/>
     <use xlink:href="#DejaVuSans-48" transform="translate(823.390625 0)"/>
     <use xlink:href="#DejaVuSans-46" transform="translate(884.921875 0)"/>
     <use xlink:href="#DejaVuSans-4c" transform="translate(939.90625 0)"/>
     <use xlink:href="#DejaVuSans-13af" transform="translate(967.6875 0)"/>
     <use xlink:href="#DejaVuSans-46" transform="translate(1030.671875 0)"/>
    </g>
    <!-- cache pressure -->
    <g transform="translate(63.062112 147.771863) scale(0.08 -0.08)">
     <use xlink:href="#DejaVuSans-46"/>
     <use xlink:href="#DejaVuSans-44" transform="translate(54.984375 0)"/>
     <use xlink:href="#DejaVuSans-46" transform="translate(116.265625 0)"/>
     <use xlink:href="#DejaVuSans-4b" transform="translate(171.25 0)"/>
     <use xlink:href="#DejaVuSans-48" transform="translate(234.625 0)"/>
     <use xlink:href="#DejaVuSans-3" transform="translate(296.15625 0)"/>
     <use xlink:href="#DejaVuSans-53" transform="translate(327.9375 0)"/>
     <use xlink:href="#DejaVuSans-55" transform="translate(391.421875 0)"/>
     <use xlink:href="#DejaVuSans-48" transform="translate(430.328125 0)"/>
     <use xlink:href="#DejaVuSans-56" transform="translate(491.859375 0)"/>
     <use xlink:href="#DejaVuSans-56" transform="translate(543.953125 0)"/>
     <use xlink:href="#DejaVuSans-58" transform="translate(596.046875 0)"/>
     <use xlink:href="#DejaVuSans-55" transform="translate(659.421875 0)"/>
     <use xlink:href="#DejaVuSans-48" transform="translate(698.328125 0)"/>
    </g>
   </g>
   <g id="text_17">
    <!-- Figure 5. Cache hit ratio under increasing concurrency -->
    <g transform="translate(21.144023 15.558281) scale(0.11 -0.11)">
     <defs>
      <path id="DejaVuSans-29" d="M 628 4666 
L 3309 4666 
L 3309 4134 
L 1259 4134 
L 1259 2759 
L 3109 2759 
L 3109 2228 
L 1259 2228 
L 1259 0 
L 628 0 
L 628 4666 
z
" transform="scale(0.015625)"/>
      <path id="DejaVuSans-11" d="M 684 794 
L 1344 794 
L 1344 0 
L 684 0 
L 684 794 
z
" transform="scale(0.015625)"/>
      <path id="DejaVuSans-5c" d="M 2059 -325 
Q 1816 -950 1584 -1140 
Q 1353 -1331 966 -1331 
L 506 -1331 
L 506 -850 
L 844 -850 
Q 1081 -850 1212 -737 
Q 1344 -625 1503 -206 
L 1606 56 
L 191 3500 
L 800 3500 
L 1894 763 
L 2988 3500 
L 3597 3500 
L 2059 -325 
z
" transform="scale(0.015625)"/>
     </defs>
     <use xlink:href="#DejaVuSans-29"/>
     <use xlink:href="#DejaVuSans-4c" transform="translate(50.234375 0)"/>
     <use xlink:href="#DejaVuSans-4a" transform="translate(78.015625 0)"/>
     <use xlink:href="#DejaVuSans-58" transform="translate(141.5 0)"/>
     <use xlink:href="#DejaVuSans-55" transform="translate(204.875 0)"/>
     <use xlink:href="#DejaVuSans-48" transform="translate(243.78125 0)"/>
     <use xlink:href="#DejaVuSans-3" transform="translate(305.3125 0)"/>
     <use xlink:href="#DejaVuSans-18" transform="translate(337.09375 0)"/>
     <use xlink:href="#DejaVuSans-11" transform="translate(400.71875 0)"/>
     <use xlink:href="#DejaVuSans-3" transform="translate(432.5 0)"/>
     <use xlink:href="#DejaVuSans-26" transform="translate(464.28125 0)"/>
     <use xlink:href="#DejaVuSans-44" transform="translate(534.109375 0)"/>
     <use xlink:href="#DejaVuSans-46" transform="translate(595.390625 0)"/>
     <use xlink:href="#DejaVuSans-4b" transform="translate(650.375 0)"/>
     <use xlink:href="#DejaVuSans-48" transform="translate(713.75 0)"/>
     <use xlink:href="#DejaVuSans-3" transform="translate(775.28125 0)"/>
     <use xlink:href="#DejaVuSans-4b" transform="translate(807.0625 0)"/>
     <use xlink:href="#DejaVuSans-4c" transform="translate(870.4375 0)"/>
     <use xlink:href="#DejaVuSans-57" transform="translate(898.21875 0)"/>
     <use xlink:href="#DejaVuSans-3" transform="translate(937.421875 0)"/>
     <use xlink:href="#DejaVuSans-55" transform="translate(969.203125 0)"/>
     <use xlink:href="#DejaVuSans-44" transform="translate(1010.3125 0)"/>
     <use xlink:href="#DejaVuSans-57" transform="translate(1071.59375 0)"/>
     <use xlink:href="#DejaVuSans-4c" transform="translate(1110.796875 0)"/>
     <use xlink:href="#DejaVuSans-52" transform="translate(1138.578125 0)"/>
     <use xlink:href="#DejaVuSans-3" transform="translate(1199.765625 0)"/>
     <use xlink:href="#DejaVuSans-58" transform="translate(1231.546875 0)"/>
     <use xlink:href="#DejaVuSans-51" transform="translate(1294.921875 0)"/>
     <use xlink:href="#DejaVuSans-47" transform="translate(1358.296875 0)"/>
     <use xlink:href="#DejaVuSans-48" transform="translate(1421.78125 0)"/>
     <use xlink:href="#DejaVuSans-55" transform="translate(1483.3125 0)"/>
     <use xlink:href="#DejaVuSans-3" transform="translate(1524.421875 0)"/>
     <use xlink:href="#DejaVuSans-4c" transform="translate(1556.203125 0)"/>
     <use xlink:href="#DejaVuSans-51" transform="translate(1583.984375 0)"/>
     <use xlink:href="#DejaVuSans-46" transform="translate(1647.359375 0)"/>
     <use xlink:href="#DejaVuSans-55" transform="translate(1702.34375 0)"/>
     <use xlink:href="#DejaVuSans-48" transform="translate(1741.25 0)"/>
     <use xlink:href="#DejaVuSans-44" transform="translate(1802.78125 0)"/>
     <use xlink:href="#DejaVuSans-56" transform="translate(1864.0625 0)"/>
     <use xlink:href="#DejaVuSans-4c" transform="translate(1916.15625 0)"/>
     <use xlink:href="#DejaVuSans-51" transform="translate(1943.9375 0)"/>
     <use xlink:href="#DejaVuSans-4a" transform="translate(2007.3125 0)"/>
     <use xlink:href="#DejaVuSans-3" transform="translate(2070.796875 0)"/>
     <use xlink:href="#DejaVuSans-46" transform="translate(2102.578125 0)"/>
     <use xlink:href="#DejaVuSans-52" transform="translate(2157.5625 0)"/>
     <use xlink:href="#DejaVuSans-51" transform="translate(2218.75 0)"/>
     <use xlink:href="#DejaVuSans-46" transform="translate(2282.125 0)"/>
     <use xlink:href="#DejaVuSans-58" transform="translate(2337.109375 0)"/>
     <use xlink:href="#DejaVuSans-55" transform="translate(2400.484375 0)"/>
     <use xlink:href="#DejaVuSans-55" transform="translate(2439.84375 0)"/>
     <use xlink:href="#DejaVuSans-48" transform="translate(2478.75 0)"/>
     <use xlink:href="#DejaVuSans-51" transform="translate(2540.28125 0)"/>
     <use xlink:href="#DejaVuSans-46" transform="translate(2603.65625 0)"/>
     <use xlink:href="#DejaVuSans-5c" transform="translate(2658.640625 0)"/>
    </g>
   </g>
   <g id="legend_1">
    <g id="line2d_31">
     <path d="M 154.499219 32.691953 
L 162.999219 32.691953 
L 171.499219 32.691953 
" style="fill: none; stroke: #0072b2; stroke-width: 1.4; stroke-linecap: square"/>
     <g>
      <use xlink:href="#m84988c7e8c" x="162.999219" y="32.691953" style="fill: #0072b2; stroke: #0072b2"/>
     </g>
    </g>
    <g id="text_18">
     <!-- Planner -->
     <g transform="translate(174.899219 35.666953) scale(0.085 -0.085)">
      <defs>
       <path id="DejaVuSans-33" d="M 1259 4147 
L 1259 2394 
L 2053 2394 
Q 2494 2394 2734 2622 
Q 2975 2850 2975 3272 
Q 2975 3691 2734 3919 
Q 2494 4147 2053 4147 
L 1259 4147 
z
M 628 4666 
L 2053 4666 
Q 2838 4666 3239 4311 
Q 3641 3956 3641 3272 
Q 3641 2581 3239 2228 
Q 2838 1875 2053 1875 
L 1259 1875 
L 1259 0 
L 628 0 
L 628 4666 
z
" transform="scale(0.015625)"/>
       <path id="DejaVuSans-4f" d="M 603 4863 
L 1178 4863 
L 1178 0 
L 603 0 
L 603 4863 
z
" transform="scale(0.015625)"/>
      </defs>
      <use xlink:href="#DejaVuSans-33"/>
      <use xlink:href="#DejaVuSans-4f" transform="translate(60.296875 0)"/>
      <use xlink:href="#DejaVuSans-44" transform="translate(88.078125 0)"/>
      <use xlink:href="#DejaVuSans-51" transform="translate(149.359375 0)"/>
      <use xlink:href="#DejaVuSans-51" transform="translate(212.734375 0)"/>
      <use xlink:href="#DejaVuSans-48" transform="translate(276.109375 0)"/>
      <use xlink:href="#DejaVuSans-55" transform="translate(337.640625 0)"/>
     </g>
    </g>
    <g id="line2d_32">
     <path d="M 154.499219 45.442617 
L 162.999219 45.442617 
L 171.499219 45.442617 
" style="fill: none; stroke: #d55e00; stroke-width: 1.4; stroke-linecap: square"/>
     <g>
      <use xlink:href="#mb8ae3da339" x="162.999219" y="45.442617" style="fill: #d55e00; stroke: #d55e00; stroke-linejoin: miter"/>
     </g>
    </g>
    <g id="text_19">
     <!-- Executor -->
     <g transform="translate(174.899219 48.417617) scale(0.085 -0.085)">
      <use xlink:href="#DejaVuSans-28"/>
      <use xlink:href="#DejaVuSans-5b" transform="translate(63.1875 0)"/>
      <use xlink:href="#DejaVuSans-48" transform="translate(119.296875 0)"/>
      <use xlink:href="#DejaVuSans-46" transform="translate(180.828125 0)"/>
      <use xlink:href="#DejaVuSans-58" transform="translate(235.8125 0)"/>
      <use xlink:href="#DejaVuSans-57" transform="translate(299.1875 0)"/>
      <use xlink:href="#DejaVuSans-52" transform="translate(338.390625 0)"/>
      <use xlink:href="#DejaVuSans-55" transform="translate(399.578125 0)"/>
     </g>
    </g>
    <g id="line2d_33">
     <path d="M 229.357656 32.691953 
L 237.857656 32.691953 
L 246.357656 32.691953 
" style="fill: none; stroke: #009e73; stroke-width: 1.4; stroke-linecap: square"/>
     <g>
      <use xlink:href="#m93258b9ebc" x="237.857656" y="32.691953" style="fill: #009e73; stroke: #009e73; stroke-linejoin: miter"/>
     </g>
    </g>
    <g id="text_20">
     <!-- Expresser -->
     <g transform="translate(249.757656 35.666953) scale(0.085 -0.085)">
      <use xlink:href="#DejaVuSans-28"/>
      <use xlink:href="#DejaVuSans-5b" transform="translate(63.1875 0)"/>
      <use xlink:href="#DejaVuSans-53" transform="translate(122.375 0)"/>
      <use xlink:href="#DejaVuSans-55" transform="translate(185.859375 0)"/>
      <use xlink:href="#DejaVuSans-48" transform="translate(224.765625 0)"/>
      <use xlink:href="#DejaVuSans-56" transform="translate(286.296875 0)"/>
      <use xlink:href="#DejaVuSans-56" transform="translate(338.390625 0)"/>
      <use xlink:href="#DejaVuSans-48" transform="translate(390.484375 0)"/>
      <use xlink:href="#DejaVuSans-55" transform="translate(452.015625 0)"/>
     </g>
    </g>
    <g id="line2d_34">
     <path d="M 229.357656 45.442617 
L 237.857656 45.442617 
L 246.357656 45.442617 
" style="fill: none; stroke: #cc79a7; stroke-width: 1.4; stroke-linecap: square"/>
     <g>
      <use xlink:href="#m2a68597197" x="237.857656" y="45.442617" style="fill: #cc79a7; stroke: #cc79a7; stroke-linejoin: miter"/>
     </g>
    </g>
    <g id="text_21">
     <!-- Reviewer -->
     <g transform="translate(249.757656 48.417617) scale(0.085 -0.085)">
      <defs>
       <path id="DejaVuSans-35" d="M 2841 2188 
Q 3044 2119 3236 1894 
Q 3428 1669 3622 1275 
L 4263 0 
L 3584 0 
L 2988 1197 
Q 2756 1666 2539 1819 
Q 2322 1972 1947 1972 
L 1259 1972 
L 1259 0 
L 628 0 
L 628 4666 
L 2053 4666 
Q 2853 4666 3247 4331 
Q 3641 3997 3641 3322 
Q 3641 2881 3436 2590 
Q 3231 2300 2841 2188 
z
M 1259 4147 
L 1259 2491 
L 2053 2491 
Q 2509 2491 2742 2702 
Q 2975 2913 2975 3322 
Q 2975 3731 2742 3939 
Q 2509 4147 2053 4147 
L 1259 4147 
z
" transform="scale(0.015625)"/>
       <path id="DejaVuSans-59" d="M 191 3500 
L 800 3500 
L 1894 563 
L 2988 3500 
L 3597 3500 
L 2284 0 
L 1503 0 
L 191 3500 
z
" transform="scale(0.015625)"/>
      </defs>
      <use xlink:href="#DejaVuSans-35"/>
      <use xlink:href="#DejaVuSans-48" transform="translate(65 0)"/>
      <use xlink:href="#DejaVuSans-59" transform="translate(126.53125 0)"/>
      <use xlink:href="#DejaVuSans-4c" transform="translate(185.71875 0)"/>
      <use xlink:href="#DejaVuSans-48" transform="translate(213.5 0)"/>
      <use xlink:href="#DejaVuSans-5a" transform="translate(275.03125 0)"/>
      <use xlink:href="#DejaVuSans-48" transform="translate(356.8125 0)"/>
      <use xlink:href="#DejaVuSans-55" transform="translate(418.34375 0)"/>
     </g>
    </g>
   </g>
  </g>
 </g>
 <defs>
  <clipPath id="p5e09171a1b">
   <rect x="41.925859" y="21.558281" width="257.397422" height="145.075078"/>
  </clipPath>
 </defs>
</svg>
