<?xml version="1.0" encoding="utf-8" standalone="no"?>
<!DOCTYPE svg PUBLIC "-//W3C//DTD SVG 1.1//EN"
  "http://www.w3.org/Graphics/SVG/1.1/DTD/svg11.dtd">
<svg xmlns:xlink="http://www.w3.org/1999/xlink" width="284.55543pt" height="191.344091pt" viewBox="0 0 284.55543 191.344091" xmlns="http://www.w3.org/2000/svg" version="1.1">
 <metadata>
  <rdf:RDF xmlns:dc="http://purl.org/dc/elements/1.1/" xmlns:cc="http://creativecommons.org/ns#" xmlns:rdf="http://www.w3.org/1999/02/22-rdf-syntax-ns#">
   <cc:Work>
    <dc:type rdf:resource="http://purl.org/dc/dcmitype/StillImage"/>
    <dc:date>2026-07-01T14:38:21.263950</dc:date>
    <dc:format>image/svg+xml</dc:format>
    <dc:creator>
     <cc:Agent>
      <dc:title>Matplotlib v3.11.0, https://matplotlib.org/</dc:title>
     </cc:Agent>
    </dc:creator>
   </cc:Work>
  </rdf:RDF>
 </metadata>
 <defs>
  <style type="text/css">*{stroke-linejoin: round; stroke-linecap: butt}</style>
 </defs>
 <g id="figure_1">
  <g id="patch_1">
   <path d="M 0 191.344091 
L 284.55543 191.344091 
L 284.55543 0 
L 0 0 
z
" style="fill: #ffffff"/>
  </g>
  <g id="axes_1">
   <g id="patch_2">
    <path d="M 48.288359 150.881297 
L 256.005781 150.881297 
L 256.005781 21.558281 
L 48.288359 21.558281 
z
" style="fill: #ffffff"/>
   </g>
   <g id="FillBetweenPolyCollection_1">
    <defs>
     <path id="m7ce13bacc0" d="M 80.429785 -141.151709 
L 71.578855 -141.151709 
L 71.435516 -141.309227 
L 71.290096 -141.466745 
L 71.141956 -141.624262 
L 70.990397 -141.78178 
L 70.834669 -141.939298 
L 70.673982 -142.096815 
L 70.507519 -142.254333 
L 70.334453 -142.411851 
L 70.153955 -142.569369 
L 69.965216 -142.726886 
L 69.767455 -142.884404 
L 69.55994 -143.041922 
L 69.341996 -143.199439 
L 69.113026 -143.356957 
L 68.872517 -143.514475 
L 68.620059 -143.671993 
L 68.355349 -143.82951 
L 68.078205 -143.987028 
L 67.788572 -144.144546 
L 67.48653 -144.302063 
L 67.172298 -144.459581 
L 66.846235 -144.617099 
L 66.508845 -144.774617 
L 66.160776 -144.932134 
L 65.802817 -145.089652 
L 65.435898 -145.24717 
L 65.06108 -145.404688 
L 64.679554 -145.562205 
L 64.292632 -145.719723 
L 63.901738 -145.877241 
L 63.508398 -146.034758 
L 63.114229 -146.192276 
L 62.72093 -146.349794 
L 62.330262 -146.507312 
L 61.944044 -146.664829 
L 61.56413 -146.822347 
L 61.192397 -146.979865 
L 60.830732 -147.137382 
L 60.481009 -147.2949 
L 60.14508 -147.452418 
L 59.824754 -147.609936 
L 59.521781 -147.767453 
L 59.237835 -147.924971 
L 58.974501 -148.082489 
L 58.733256 -148.240006 
L 58.515456 -148.397524 
L 58.322322 -148.555042 
L 58.154928 -148.71256 
L 58.014188 -148.870077 
L 57.900851 -149.027595 
L 57.815488 -149.185113 
L 57.75849 -149.34263 
L 57.73006 -149.500148 
L 57.730219 -149.657666 
L 57.758797 -149.815184 
L 57.815442 -149.972701 
L 57.899624 -150.130219 
L 58.01064 -150.287737 
L 58.147624 -150.445255 
L 58.309558 -150.602772 
L 58.495283 -150.76029 
L 58.703516 -150.917808 
L 58.932863 -151.075325 
L 59.181833 -151.232843 
L 59.448862 -151.390361 
L 59.732325 -151.547879 
L 60.030555 -151.705396 
L 60.341861 -151.862914 
L 60.664548 -152.020432 
L 60.996931 -152.177949 
L 61.337355 -152.335467 
L 61.684206 -152.492985 
L 62.03593 -152.650503 
L 62.391044 -152.80802 
L 62.748146 -152.965538 
L 63.105931 -153.123056 
L 63.463191 -153.280573 
L 63.818828 -153.438091 
L 64.171859 -153.595609 
L 64.521414 -153.753127 
L 64.866742 -153.910644 
L 65.207208 -154.068162 
L 65.542295 -154.22568 
L 65.871594 -154.383197 
L 66.194804 -154.540715 
L 66.511723 -154.698233 
L 66.82224 -154.855751 
L 67.126328 -155.013268 
L 67.424034 -155.170786 
L 67.715468 -155.328304 
L 68.000792 -155.485822 
L 68.28021 -155.643339 
L 68.553955 -155.800857 
L 68.822281 -155.958375 
L 69.085452 -156.115892 
L 69.343729 -156.27341 
L 69.597364 -156.430928 
L 69.846591 -156.588446 
L 70.091618 -156.745963 
L 81.917023 -156.745963 
L 81.917023 -156.745963 
L 82.16205 -156.588446 
L 82.411277 -156.430928 
L 82.664912 -156.27341 
L 82.923189 -156.115892 
L 83.186359 -155.958375 
L 83.454686 -155.800857 
L 83.728431 -155.643339 
L 84.007848 -155.485822 
L 84.293172 -155.328304 
L 84.584606 -155.170786 
L 84.882313 -155.013268 
L 85.186401 -154.855751 
L 85.496918 -154.698233 
L 85.813836 -154.540715 
L 86.137046 -154.383197 
L 86.466345 -154.22568 
L 86.801432 -154.068162 
L 87.141899 -153.910644 
L 87.487227 -153.753127 
L 87.836782 -153.595609 
L 88.189812 -153.438091 
L 88.54545 -153.280573 
L 88.90271 -153.123056 
L 89.260494 -152.965538 
L 89.617597 -152.80802 
L 89.972711 -152.650503 
L 90.324435 -152.492985 
L 90.671286 -152.335467 
L 91.01171 -152.177949 
L 91.344093 -152.020432 
L 91.66678 -151.862914 
L 91.978086 -151.705396 
L 92.276316 -151.547879 
L 92.559778 -151.390361 
L 92.826808 -151.232843 
L 93.075778 -151.075325 
L 93.305124 -150.917808 
L 93.513357 -150.76029 
L 93.699083 -150.602772 
L 93.861017 -150.445255 
L 93.998001 -150.287737 
L 94.109017 -150.130219 
L 94.193199 -149.972701 
L 94.249844 -149.815184 
L 94.278422 -149.657666 
L 94.27858 -149.500148 
L 94.250151 -149.34263 
L 94.193152 -149.185113 
L 94.107789 -149.027595 
L 93.994452 -148.870077 
L 93.853713 -148.71256 
L 93.686319 -148.555042 
L 93.493185 -148.397524 
L 93.275385 -148.240006 
L 93.03414 -148.082489 
L 92.770806 -147.924971 
L 92.48686 -147.767453 
L 92.183887 -147.609936 
L 91.863561 -147.452418 
L 91.527632 -147.2949 
L 91.177909 -147.137382 
L 90.816243 -146.979865 
L 90.444511 -146.822347 
L 90.064596 -146.664829 
L 89.678378 -146.507312 
L 89.287711 -146.349794 
L 88.894411 -146.192276 
L 88.500243 -146.034758 
L 88.106903 -145.877241 
L 87.716009 -145.719723 
L 87.329087 -145.562205 
L 86.947561 -145.404688 
L 86.572743 -145.24717 
L 86.205823 -145.089652 
L 85.847865 -144.932134 
L 85.499796 -144.774617 
L 85.162406 -144.617099 
L 84.836343 -144.459581 
L 84.52211 -144.302063 
L 84.220069 -144.144546 
L 83.930436 -143.987028 
L 83.653292 -143.82951 
L 83.388582 -143.671993 
L 83.136124 -143.514475 
L 82.895615 -143.356957 
L 82.666645 -143.199439 
L 82.448701 -143.041922 
L 82.241185 -142.884404 
L 82.043425 -142.726886 
L 81.854686 -142.569369 
L 81.674188 -142.411851 
L 81.501122 -142.254333 
L 81.334659 -142.096815 
L 81.173972 -141.939298 
L 81.018243 -141.78178 
L 80.866685 -141.624262 
L 80.718545 -141.466745 
L 80.573125 -141.309227 
L 80.429785 -141.151709 
z
" style="stroke: #000000; stroke-opacity: 0.9; stroke-width: 0.8"/>
    </defs>
    <g clip-path="url(#p1ce9bb6b64)">
     <use xlink:href="#m7ce13bacc0" x="0" y="191.344091" style="fill: #d9d9d9; fill-opacity: 0.9; stroke: #000000; stroke-opacity: 0.9; stroke-width: 0.8"/>
    </g>
   </g>
   <g id="FillBetweenPolyCollection_2">
    <defs>
     <path id="mdaae0eb517" d="M 133.561413 -84.226806 
L 119.970894 -84.226806 
L 119.887002 -84.389918 
L 119.809948 -84.55303 
L 119.739421 -84.716142 
L 119.675026 -84.879254 
L 119.616296 -85.042366 
L 119.562682 -85.205478 
L 119.51357 -85.36859 
L 119.468278 -85.531702 
L 119.426063 -85.694814 
L 119.38613 -85.857926 
L 119.347638 -86.021037 
L 119.309708 -86.184149 
L 119.27143 -86.347261 
L 119.231876 -86.510373 
L 119.190104 -86.673485 
L 119.145171 -86.836597 
L 119.096141 -86.999709 
L 119.042094 -87.162821 
L 118.982138 -87.325933 
L 118.915414 -87.489045 
L 118.84111 -87.652157 
L 118.758464 -87.815269 
L 118.666777 -87.978381 
L 118.565417 -88.141493 
L 118.453824 -88.304605 
L 118.331522 -88.467717 
L 118.198119 -88.630829 
L 118.053312 -88.793941 
L 117.896892 -88.957053 
L 117.728744 -89.120165 
L 117.548853 -89.283277 
L 117.357298 -89.446389 
L 117.154256 -89.609501 
L 116.940003 -89.772613 
L 116.714904 -89.935725 
L 116.479418 -90.098837 
L 116.23409 -90.261949 
L 115.979547 -90.425061 
L 115.716496 -90.588173 
L 115.445711 -90.751285 
L 115.168037 -90.914397 
L 114.884372 -91.077509 
L 114.595669 -91.240621 
L 114.302925 -91.403733 
L 114.007171 -91.566845 
L 113.709469 -91.729957 
L 113.410902 -91.893068 
L 113.112565 -92.05618 
L 112.81556 -92.219292 
L 112.520986 -92.382404 
L 112.229936 -92.545516 
L 111.943484 -92.708628 
L 111.662687 -92.87174 
L 111.38857 -93.034852 
L 111.122128 -93.197964 
L 110.864318 -93.361076 
L 110.616055 -93.524188 
L 110.378209 -93.6873 
L 110.1516 -93.850412 
L 109.936999 -94.013524 
L 109.735123 -94.176636 
L 109.546634 -94.339748 
L 109.37214 -94.50286 
L 109.212194 -94.665972 
L 109.067293 -94.829084 
L 108.93788 -94.992196 
L 108.824343 -95.155308 
L 108.727019 -95.31842 
L 108.646193 -95.481532 
L 108.582101 -95.644644 
L 108.534933 -95.807756 
L 108.504831 -95.970868 
L 108.491894 -96.13398 
L 108.49618 -96.297092 
L 108.517707 -96.460204 
L 108.556455 -96.623316 
L 108.612365 -96.786428 
L 108.685346 -96.94954 
L 108.77527 -97.112652 
L 108.881977 -97.275764 
L 109.005275 -97.438876 
L 109.144938 -97.601987 
L 109.30071 -97.765099 
L 109.472302 -97.928211 
L 109.659394 -98.091323 
L 109.861633 -98.254435 
L 110.078634 -98.417547 
L 110.309981 -98.580659 
L 110.555222 -98.743771 
L 110.813873 -98.906883 
L 111.085417 -99.069995 
L 111.369301 -99.233107 
L 111.664941 -99.396219 
L 111.971718 -99.559331 
L 112.28898 -99.722443 
L 112.616043 -99.885555 
L 112.952193 -100.048667 
L 113.296684 -100.211779 
L 113.648747 -100.374891 
L 139.883561 -100.374891 
L 139.883561 -100.374891 
L 140.235623 -100.211779 
L 140.580115 -100.048667 
L 140.916264 -99.885555 
L 141.243327 -99.722443 
L 141.560589 -99.559331 
L 141.867366 -99.396219 
L 142.163006 -99.233107 
L 142.446891 -99.069995 
L 142.718434 -98.906883 
L 142.977085 -98.743771 
L 143.222326 -98.580659 
L 143.453673 -98.417547 
L 143.670675 -98.254435 
L 143.872914 -98.091323 
L 144.060005 -97.928211 
L 144.231597 -97.765099 
L 144.387369 -97.601987 
L 144.527032 -97.438876 
L 144.65033 -97.275764 
L 144.757037 -97.112652 
L 144.846962 -96.94954 
L 144.919942 -96.786428 
L 144.975853 -96.623316 
L 145.0146 -96.460204 
L 145.036127 -96.297092 
L 145.040414 -96.13398 
L 145.027477 -95.970868 
L 144.997374 -95.807756 
L 144.950206 -95.644644 
L 144.886114 -95.481532 
L 144.805288 -95.31842 
L 144.707964 -95.155308 
L 144.594427 -94.992196 
L 144.465014 -94.829084 
L 144.320113 -94.665972 
L 144.160167 -94.50286 
L 143.985674 -94.339748 
L 143.797185 -94.176636 
L 143.595308 -94.013524 
L 143.380707 -93.850412 
L 143.154098 -93.6873 
L 142.916252 -93.524188 
L 142.667989 -93.361076 
L 142.410179 -93.197964 
L 142.143738 -93.034852 
L 141.869621 -92.87174 
L 141.588823 -92.708628 
L 141.302372 -92.545516 
L 141.011321 -92.382404 
L 140.716748 -92.219292 
L 140.419742 -92.05618 
L 140.121405 -91.893068 
L 139.822838 -91.729957 
L 139.525136 -91.566845 
L 139.229383 -91.403733 
L 138.936638 -91.240621 
L 138.647935 -91.077509 
L 138.364271 -90.914397 
L 138.086596 -90.751285 
L 137.815812 -90.588173 
L 137.55276 -90.425061 
L 137.298218 -90.261949 
L 137.05289 -90.098837 
L 136.817403 -89.935725 
L 136.592305 -89.772613 
L 136.378051 -89.609501 
L 136.17501 -89.446389 
L 135.983455 -89.283277 
L 135.803563 -89.120165 
L 135.635416 -88.957053 
L 135.478996 -88.793941 
L 135.334189 -88.630829 
L 135.200785 -88.467717 
L 135.078483 -88.304605 
L 134.966891 -88.141493 
L 134.86553 -87.978381 
L 134.773843 -87.815269 
L 134.691197 -87.652157 
L 134.616893 -87.489045 
L 134.55017 -87.325933 
L 134.490213 -87.162821 
L 134.436166 -86.999709 
L 134.387136 -86.836597 
L 134.342203 -86.673485 
L 134.300431 -86.510373 
L 134.260877 -86.347261 
L 134.2226 -86.184149 
L 134.18467 -86.021037 
L 134.146178 -85.857926 
L 134.106245 -85.694814 
L 134.06403 -85.531702 
L 134.018737 -85.36859 
L 133.969625 -85.205478 
L 133.916012 -85.042366 
L 133.857281 -84.879254 
L 133.792887 -84.716142 
L 133.722359 -84.55303 
L 133.645305 -84.389918 
L 133.561413 -84.226806 
z
" style="stroke: #000000; stroke-opacity: 0.9; stroke-width: 0.8"/>
    </defs>
    <g clip-path="url(#p1ce9bb6b64)">
     <use xlink:href="#mdaae0eb517" x="0" y="191.344091" style="fill: #d9d9d9; fill-opacity: 0.9; stroke: #000000; stroke-opacity: 0.9; stroke-width: 0.8"/>
    </g>
   </g>
   <g id="FillBetweenPolyCollection_3">
    <defs>
     <path id="mabb155d8f3" d="M 183.64753 -115.085514 
L 171.408444 -115.085514 
L 171.194674 -115.339303 
L 170.978486 -115.593093 
L 170.759598 -115.846883 
L 170.537686 -116.100673 
L 170.312386 -116.354463 
L 170.083303 -116.608252 
L 169.850017 -116.862042 
L 169.612096 -117.115832 
L 169.3691 -117.369622 
L 169.120597 -117.623412 
L 168.866174 -117.877201 
L 168.605446 -118.130991 
L 168.338072 -118.384781 
L 168.063768 -118.638571 
L 167.782316 -118.89236 
L 167.493583 -119.14615 
L 167.197526 -119.39994 
L 166.894207 -119.65373 
L 166.583804 -119.90752 
L 166.266617 -120.161309 
L 165.943075 -120.415099 
L 165.613745 -120.668889 
L 165.279331 -120.922679 
L 164.94068 -121.176469 
L 164.598774 -121.430258 
L 164.254734 -121.684048 
L 163.909808 -121.937838 
L 163.565367 -122.191628 
L 163.22289 -122.445418 
L 162.883953 -122.699207 
L 162.550214 -122.952997 
L 162.223393 -123.206787 
L 161.905256 -123.460577 
L 161.59759 -123.714367 
L 161.302184 -123.968156 
L 161.020806 -124.221946 
L 160.755177 -124.475736 
L 160.506949 -124.729526 
L 160.277684 -124.983316 
L 160.068829 -125.237105 
L 159.881695 -125.490895 
L 159.717439 -125.744685 
L 159.577045 -125.998475 
L 159.461311 -126.252265 
L 159.370833 -126.506054 
L 159.305999 -126.759844 
L 159.26698 -127.013634 
L 159.253727 -127.267424 
L 159.265973 -127.521213 
L 159.303235 -127.775003 
L 159.36482 -128.028793 
L 159.449837 -128.282583 
L 159.557206 -128.536373 
L 159.685681 -128.790162 
L 159.83386 -129.043952 
L 160.000212 -129.297742 
L 160.183097 -129.551532 
L 160.380789 -129.805322 
L 160.591501 -130.059111 
L 160.813412 -130.312901 
L 161.044692 -130.566691 
L 161.283525 -130.820481 
L 161.528137 -131.074271 
L 161.776815 -131.32806 
L 162.027932 -131.58185 
L 162.279967 -131.83564 
L 162.53152 -132.08943 
L 162.781329 -132.34322 
L 163.028282 -132.597009 
L 163.271426 -132.850799 
L 163.509977 -133.104589 
L 163.74332 -133.358379 
L 163.971013 -133.612169 
L 164.192782 -133.865958 
L 164.408522 -134.119748 
L 164.618283 -134.373538 
L 164.822268 -134.627328 
L 165.020813 -134.881118 
L 165.214383 -135.134907 
L 165.403549 -135.388697 
L 165.588977 -135.642487 
L 165.771407 -135.896277 
L 165.951639 -136.150066 
L 166.130512 -136.403856 
L 166.308887 -136.657646 
L 166.48763 -136.911436 
L 166.667593 -137.165226 
L 166.849598 -137.419015 
L 167.034424 -137.672805 
L 167.22279 -137.926595 
L 167.415343 -138.180385 
L 167.612652 -138.434175 
L 167.81519 -138.687964 
L 168.023336 -138.941754 
L 168.237363 -139.195544 
L 168.457438 -139.449334 
L 168.683618 -139.703124 
L 168.915854 -139.956913 
L 169.15399 -140.210703 
L 185.901984 -140.210703 
L 185.901984 -140.210703 
L 186.14012 -139.956913 
L 186.372356 -139.703124 
L 186.598536 -139.449334 
L 186.818611 -139.195544 
L 187.032638 -138.941754 
L 187.240783 -138.687964 
L 187.443322 -138.434175 
L 187.64063 -138.180385 
L 187.833184 -137.926595 
L 188.02155 -137.672805 
L 188.206376 -137.419015 
L 188.388381 -137.165226 
L 188.568344 -136.911436 
L 188.747087 -136.657646 
L 188.925462 -136.403856 
L 189.104335 -136.150066 
L 189.284567 -135.896277 
L 189.466997 -135.642487 
L 189.652425 -135.388697 
L 189.841591 -135.134907 
L 190.03516 -134.881118 
L 190.233706 -134.627328 
L 190.437691 -134.373538 
L 190.647452 -134.119748 
L 190.863192 -133.865958 
L 191.084961 -133.612169 
L 191.312654 -133.358379 
L 191.545997 -133.104589 
L 191.784548 -132.850799 
L 192.027692 -132.597009 
L 192.274645 -132.34322 
L 192.524454 -132.08943 
L 192.776007 -131.83564 
L 193.028042 -131.58185 
L 193.279159 -131.32806 
L 193.527837 -131.074271 
L 193.772449 -130.820481 
L 194.011282 -130.566691 
L 194.242562 -130.312901 
L 194.464473 -130.059111 
L 194.675185 -129.805322 
L 194.872877 -129.551532 
L 195.055762 -129.297742 
L 195.222114 -129.043952 
L 195.370293 -128.790162 
L 195.498768 -128.536373 
L 195.606137 -128.282583 
L 195.691153 -128.028793 
L 195.752739 -127.775003 
L 195.790001 -127.521213 
L 195.802247 -127.267424 
L 195.788994 -127.013634 
L 195.749975 -126.759844 
L 195.685141 -126.506054 
L 195.594663 -126.252265 
L 195.478928 -125.998475 
L 195.338535 -125.744685 
L 195.174279 -125.490895 
L 194.987145 -125.237105 
L 194.77829 -124.983316 
L 194.549025 -124.729526 
L 194.300797 -124.475736 
L 194.035168 -124.221946 
L 193.753789 -123.968156 
L 193.458384 -123.714367 
L 193.150718 -123.460577 
L 192.832581 -123.206787 
L 192.50576 -122.952997 
L 192.172021 -122.699207 
L 191.833084 -122.445418 
L 191.490607 -122.191628 
L 191.146166 -121.937838 
L 190.80124 -121.684048 
L 190.4572 -121.430258 
L 190.115294 -121.176469 
L 189.776643 -120.922679 
L 189.442229 -120.668889 
L 189.112899 -120.415099 
L 188.789357 -120.161309 
L 188.47217 -119.90752 
L 188.161767 -119.65373 
L 187.858448 -119.39994 
L 187.562391 -119.14615 
L 187.273658 -118.89236 
L 186.992206 -118.638571 
L 186.717902 -118.384781 
L 186.450528 -118.130991 
L 186.1898 -117.877201 
L 185.935377 -117.623412 
L 185.686874 -117.369622 
L 185.443878 -117.115832 
L 185.205957 -116.862042 
L 184.972671 -116.608252 
L 184.743588 -116.354463 
L 184.518287 -116.100673 
L 184.296376 -115.846883 
L 184.077488 -115.593093 
L 183.8613 -115.339303 
L 183.64753 -115.085514 
z
" style="stroke: #000000; stroke-opacity: 0.9; stroke-width: 0.8"/>
    </defs>
    <g clip-path="url(#p1ce9bb6b64)">
     <use xlink:href="#mabb155d8f3" x="0" y="191.344091" style="fill: #d9d9d9; fill-opacity: 0.9; stroke: #000000; stroke-opacity: 0.9; stroke-width: 0.8"/>
    </g>
   </g>
   <g id="FillBetweenPolyCollection_4">
    <defs>
     <path id="m2da0ba2634" d="M 239.653208 -130.655693 
L 216.926432 -130.655693 
L 216.562984 -130.855847 
L 216.20259 -131.056001 
L 215.846021 -131.256155 
L 215.494047 -131.456309 
L 215.147428 -131.656464 
L 214.806917 -131.856618 
L 214.473256 -132.056772 
L 214.147174 -132.256926 
L 213.829384 -132.45708 
L 213.52058 -132.657234 
L 213.221438 -132.857389 
L 212.93261 -133.057543 
L 212.654724 -133.257697 
L 212.388379 -133.457851 
L 212.134145 -133.658005 
L 211.892561 -133.85816 
L 211.664127 -134.058314 
L 211.449308 -134.258468 
L 211.248526 -134.458622 
L 211.062161 -134.658776 
L 210.890544 -134.85893 
L 210.733956 -135.059085 
L 210.592628 -135.259239 
L 210.466733 -135.459393 
L 210.356384 -135.659547 
L 210.261636 -135.859701 
L 210.182479 -136.059855 
L 210.118838 -136.26001 
L 210.070571 -136.460164 
L 210.037467 -136.660318 
L 210.019246 -136.860472 
L 210.01556 -137.060626 
L 210.02599 -137.260781 
L 210.050051 -137.460935 
L 210.087188 -137.661089 
L 210.136785 -137.861243 
L 210.198164 -138.061397 
L 210.270589 -138.261551 
L 210.353271 -138.461706 
L 210.445372 -138.66186 
L 210.546014 -138.862014 
L 210.654282 -139.062168 
L 210.769233 -139.262322 
L 210.889901 -139.462477 
L 211.015309 -139.662631 
L 211.144474 -139.862785 
L 211.276418 -140.062939 
L 211.410173 -140.263093 
L 211.544796 -140.463247 
L 211.679372 -140.663402 
L 211.813027 -140.863556 
L 211.944932 -141.06371 
L 212.074316 -141.263864 
L 212.200472 -141.464018 
L 212.32276 -141.664173 
L 212.44062 -141.864327 
L 212.553575 -142.064481 
L 212.661233 -142.264635 
L 212.763294 -142.464789 
L 212.859556 -142.664943 
L 212.949907 -142.865098 
L 213.03434 -143.065252 
L 213.112938 -143.265406 
L 213.185887 -143.46556 
L 213.253463 -143.665714 
L 213.316034 -143.865869 
L 213.374057 -144.066023 
L 213.428067 -144.266177 
L 213.478679 -144.466331 
L 213.526574 -144.666485 
L 213.572496 -144.866639 
L 213.617244 -145.066794 
L 213.661658 -145.266948 
L 213.706618 -145.467102 
L 213.753026 -145.667256 
L 213.801803 -145.86741 
L 213.853875 -146.067565 
L 213.910164 -146.267719 
L 213.971581 -146.467873 
L 214.03901 -146.668027 
L 214.113305 -146.868181 
L 214.195278 -147.068335 
L 214.285691 -147.26849 
L 214.385246 -147.468644 
L 214.494582 -147.668798 
L 214.614265 -147.868952 
L 214.744782 -148.069106 
L 214.88654 -148.269261 
L 215.039858 -148.469415 
L 215.204963 -148.669569 
L 215.381994 -148.869723 
L 215.570994 -149.069877 
L 215.771912 -149.270031 
L 215.984608 -149.470186 
L 216.208846 -149.67034 
L 216.444306 -149.870494 
L 216.690578 -150.070648 
L 216.947175 -150.270802 
L 217.213531 -150.470957 
L 239.366109 -150.470957 
L 239.366109 -150.470957 
L 239.632466 -150.270802 
L 239.889063 -150.070648 
L 240.135335 -149.870494 
L 240.370794 -149.67034 
L 240.595033 -149.470186 
L 240.807728 -149.270031 
L 241.008647 -149.069877 
L 241.197646 -148.869723 
L 241.374677 -148.669569 
L 241.539783 -148.469415 
L 241.6931 -148.269261 
L 241.834858 -148.069106 
L 241.965376 -147.868952 
L 242.085058 -147.668798 
L 242.194394 -147.468644 
L 242.29395 -147.26849 
L 242.384362 -147.068335 
L 242.466335 -146.868181 
L 242.540631 -146.668027 
L 242.60806 -146.467873 
L 242.669476 -146.267719 
L 242.725766 -146.067565 
L 242.777838 -145.86741 
L 242.826615 -145.667256 
L 242.873023 -145.467102 
L 242.917982 -145.266948 
L 242.962397 -145.066794 
L 243.007144 -144.866639 
L 243.053067 -144.666485 
L 243.100962 -144.466331 
L 243.151574 -144.266177 
L 243.205584 -144.066023 
L 243.263606 -143.865869 
L 243.326177 -143.665714 
L 243.393753 -143.46556 
L 243.466702 -143.265406 
L 243.545301 -143.065252 
L 243.629733 -142.865098 
L 243.720085 -142.664943 
L 243.816346 -142.464789 
L 243.918408 -142.264635 
L 244.026066 -142.064481 
L 244.13902 -141.864327 
L 244.256881 -141.664173 
L 244.379169 -141.464018 
L 244.505324 -141.263864 
L 244.634709 -141.06371 
L 244.766614 -140.863556 
L 244.900268 -140.663402 
L 245.034844 -140.463247 
L 245.169467 -140.263093 
L 245.303223 -140.062939 
L 245.435166 -139.862785 
L 245.564331 -139.662631 
L 245.689739 -139.462477 
L 245.810408 -139.262322 
L 245.925358 -139.062168 
L 246.033626 -138.862014 
L 246.134269 -138.66186 
L 246.22637 -138.461706 
L 246.309052 -138.261551 
L 246.381476 -138.061397 
L 246.442855 -137.861243 
L 246.492453 -137.661089 
L 246.52959 -137.460935 
L 246.55365 -137.260781 
L 246.56408 -137.060626 
L 246.560394 -136.860472 
L 246.542174 -136.660318 
L 246.50907 -136.460164 
L 246.460802 -136.26001 
L 246.397162 -136.059855 
L 246.318005 -135.859701 
L 246.223257 -135.659547 
L 246.112908 -135.459393 
L 245.987012 -135.259239 
L 245.845684 -135.059085 
L 245.689097 -134.85893 
L 245.51748 -134.658776 
L 245.331114 -134.458622 
L 245.130333 -134.258468 
L 244.915514 -134.058314 
L 244.68708 -133.85816 
L 244.445495 -133.658005 
L 244.191262 -133.457851 
L 243.924917 -133.257697 
L 243.64703 -133.057543 
L 243.358202 -132.857389 
L 243.059061 -132.657234 
L 242.750257 -132.45708 
L 242.432467 -132.256926 
L 242.106385 -132.056772 
L 241.772724 -131.856618 
L 241.432213 -131.656464 
L 241.085594 -131.456309 
L 240.733619 -131.256155 
L 240.377051 -131.056001 
L 240.016657 -130.855847 
L 239.653208 -130.655693 
z
" style="stroke: #000000; stroke-opacity: 0.9; stroke-width: 0.8"/>
    </defs>
    <g clip-path="url(#p1ce9bb6b64)">
     <use xlink:href="#m2da0ba2634" x="0" y="191.344091" style="fill: #d9d9d9; fill-opacity: 0.9; stroke: #000000; stroke-opacity: 0.9; stroke-width: 0.8"/>
    </g>
   </g>
   <g id="matplotlib.axis_1">
    <g id="xtick_1">
     <g id="line2d_1">
      <defs>
       <path id="m8f5ad05085" d="M 0 0 
L 0 3.5 
" style="stroke: #000000; stroke-width: 0.8"/>
      </defs>
      <g>
       <use xlink:href="#m8f5ad05085" x="76.00432" y="150.881297" style="stroke: #000000; stroke-width: 0.8"/>
      </g>
     </g>
     <g id="text_1">
      <!-- Planner -->
      <g transform="translate(39.591812 177.975505) rotate(-20) scale(0.1 -0.1)">
       <defs>
        <path id="DejaVuSans-33" d="M 1259 4147 
L 1259 2394 
L 2053 2394 
Q 2494 2394 2734 2622 
Q 2975 2850 2975 3272 
Q 2975 3691 2734 3919 
Q 2494 4147 2053 4147 
L 1259 4147 
z
M 628 4666 
L 2053 4666 
Q 2838 4666 3239 4311 
Q 3641 3956 3641 3272 
Q 3641 2581 3239 2228 
Q 2838 1875 2053 1875 
L 1259 1875 
L 1259 0 
L 628 0 
L 628 4666 
z
" transform="scale(0.015625)"/>
        <path id="DejaVuSans-4f" d="M 603 4863 
L 1178 4863 
L 1178 0 
L 603 0 
L 603 4863 
z
" transform="scale(0.015625)"/>
        <path id="DejaVuSans-44" d="M 2194 1759 
Q 1497 1759 1228 1600 
Q 959 1441 959 1056 
Q 959 750 1161 570 
Q 1363 391 1709 391 
Q 2188 391 2477 730 
Q 2766 1069 2766 1631 
L 2766 1759 
L 2194 1759 
z
M 3341 1997 
L 3341 0 
L 2766 0 
L 2766 531 
Q 2569 213 2275 61 
Q 1981 -91 1556 -91 
Q 1019 -91 701 211 
Q 384 513 384 1019 
Q 384 1609 779 1909 
Q 1175 2209 1959 2209 
L 2766 2209 
L 2766 2266 
Q 2766 2663 2505 2880 
Q 2244 3097 1772 3097 
Q 1472 3097 1187 3025 
Q 903 2953 641 2809 
L 641 3341 
Q 956 3463 1253 3523 
Q 1550 3584 1831 3584 
Q 2591 3584 2966 3190 
Q 3341 2797 3341 1997 
z
" transform="scale(0.015625)"/>
        <path id="DejaVuSans-51" d="M 3513 2113 
L 3513 0 
L 2938 0 
L 2938 2094 
Q 2938 2591 2744 2837 
Q 2550 3084 2163 3084 
Q 1697 3084 1428 2787 
Q 1159 2491 1159 1978 
L 1159 0 
L 581 0 
L 581 3500 
L 1159 3500 
L 1159 2956 
Q 1366 3272 1645 3428 
Q 1925 3584 2291 3584 
Q 2894 3584 3203 3211 
Q 3513 2838 3513 2113 
z
" transform="scale(0.015625)"/>
        <path id="DejaVuSans-48" d="M 3597 1894 
L 3597 1613 
L 953 1613 
Q 991 1019 1311 708 
Q 1631 397 2203 397 
Q 2534 397 2845 478 
Q 3156 559 3463 722 
L 3463 178 
Q 3153 47 2828 -22 
Q 2503 -91 2169 -91 
Q 1331 -91 842 396 
Q 353 884 353 1716 
Q 353 2575 817 3079 
Q 1281 3584 2069 3584 
Q 2775 3584 3186 3129 
Q 3597 2675 3597 1894 
z
M 3022 2063 
Q 3016 2534 2758 2815 
Q 2500 3097 2075 3097 
Q 1594 3097 1305 2825 
Q 1016 2553 972 2059 
L 3022 2063 
z
" transform="scale(0.015625)"/>
        <path id="DejaVuSans-55" d="M 2631 2963 
Q 2534 3019 2420 3045 
Q 2306 3072 2169 3072 
Q 1681 3072 1420 2755 
Q 1159 2438 1159 1844 
L 1159 0 
L 581 0 
L 581 3500 
L 1159 3500 
L 1159 2956 
Q 1341 3275 1631 3429 
Q 1922 3584 2338 3584 
Q 2397 3584 2469 3576 
Q 2541 3569 2628 3553 
L 2631 2963 
z
" transform="scale(0.015625)"/>
       </defs>
       <use xlink:href="#DejaVuSans-33"/>
       <use xlink:href="#DejaVuSans-4f" transform="translate(60.296875 0)"/>
       <use xlink:href="#DejaVuSans-44" transform="translate(88.078125 0)"/>
       <use xlink:href="#DejaVuSans-51" transform="translate(149.359375 0)"/>
       <use xlink:href="#DejaVuSans-51" transform="translate(212.734375 0)"/>
       <use xlink:href="#DejaVuSans-48" transform="translate(276.109375 0)"/>
       <use xlink:href="#DejaVuSans-55" transform="translate(337.640625 0)"/>
      </g>
     </g>
    </g>
    <g id="xtick_2">
     <g id="line2d_2">
      <g>
       <use xlink:href="#m8f5ad05085" x="126.766154" y="150.881297" style="stroke: #000000; stroke-width: 0.8"/>
      </g>
     </g>
     <g id="text_2">
      <!-- Executor -->
      <g transform="translate(84.533425 180.093158) rotate(-20) scale(0.1 -0.1)">
       <defs>
        <path id="DejaVuSans-28" d="M 628 4666 
L 3578 4666 
L 3578 4134 
L 1259 4134 
L 1259 2753 
L 3481 2753 
L 3481 2222 
L 1259 2222 
L 1259 531 
L 3634 531 
L 3634 0 
L 628 0 
L 628 4666 
z
" transform="scale(0.015625)"/>
        <path id="DejaVuSans-5b" d="M 3513 3500 
L 2247 1797 
L 3578 0 
L 2900 0 
L 1881 1375 
L 863 0 
L 184 0 
L 1544 1831 
L 300 3500 
L 978 3500 
L 1906 2253 
L 2834 3500 
L 3513 3500 
z
" transform="scale(0.015625)"/>
        <path id="DejaVuSans-46" d="M 3122 3366 
L 3122 2828 
Q 2878 2963 2633 3030 
Q 2388 3097 2138 3097 
Q 1578 3097 1268 2742 
Q 959 2388 959 1747 
Q 959 1106 1268 751 
Q 1578 397 2138 397 
Q 2388 397 2633 464 
Q 2878 531 3122 666 
L 3122 134 
Q 2881 22 2623 -34 
Q 2366 -91 2075 -91 
Q 1284 -91 818 406 
Q 353 903 353 1747 
Q 353 2603 823 3093 
Q 1294 3584 2113 3584 
Q 2378 3584 2631 3529 
Q 2884 3475 3122 3366 
z
" transform="scale(0.015625)"/>
        <path id="DejaVuSans-58" d="M 544 1381 
L 544 3500 
L 1119 3500 
L 1119 1403 
Q 1119 906 1312 657 
Q 1506 409 1894 409 
Q 2359 409 2629 706 
Q 2900 1003 2900 1516 
L 2900 3500 
L 3475 3500 
L 3475 0 
L 2900 0 
L 2900 538 
Q 2691 219 2414 64 
Q 2138 -91 1772 -91 
Q 1169 -91 856 284 
Q 544 659 544 1381 
z
M 1991 3584 
L 1991 3584 
z
" transform="scale(0.015625)"/>
        <path id="DejaVuSans-57" d="M 1172 4494 
L 1172 3500 
L 2356 3500 
L 2356 3053 
L 1172 3053 
L 1172 1153 
Q 1172 725 1289 603 
Q 1406 481 1766 481 
L 2356 481 
L 2356 0 
L 1766 0 
Q 1100 0 847 248 
Q 594 497 594 1153 
L 594 3053 
L 172 3053 
L 172 3500 
L 594 3500 
L 594 4494 
L 1172 4494 
z
" transform="scale(0.015625)"/>
        <path id="DejaVuSans-52" d="M 1959 3097 
Q 1497 3097 1228 2736 
Q 959 2375 959 1747 
Q 959 1119 1226 758 
Q 1494 397 1959 397 
Q 2419 397 2687 759 
Q 2956 1122 2956 1747 
Q 2956 2369 2687 2733 
Q 2419 3097 1959 3097 
z
M 1959 3584 
Q 2709 3584 3137 3096 
Q 3566 2609 3566 1747 
Q 3566 888 3137 398 
Q 2709 -91 1959 -91 
Q 1206 -91 779 398 
Q 353 888 353 1747 
Q 353 2609 779 3096 
Q 1206 3584 1959 3584 
z
" transform="scale(0.015625)"/>
       </defs>
       <use xlink:href="#DejaVuSans-28"/>
       <use xlink:href="#DejaVuSans-5b" transform="translate(63.1875 0)"/>
       <use xlink:href="#DejaVuSans-48" transform="translate(119.296875 0)"/>
       <use xlink:href="#DejaVuSans-46" transform="translate(180.828125 0)"/>
       <use xlink:href="#DejaVuSans-58" transform="translate(235.8125 0)"/>
       <use xlink:href="#DejaVuSans-57" transform="translate(299.1875 0)"/>
       <use xlink:href="#DejaVuSans-52" transform="translate(338.390625 0)"/>
       <use xlink:href="#DejaVuSans-55" transform="translate(399.578125 0)"/>
      </g>
     </g>
    </g>
    <g id="xtick_3">
     <g id="line2d_3">
      <g>
       <use xlink:href="#m8f5ad05085" x="177.527987" y="150.881297" style="stroke: #000000; stroke-width: 0.8"/>
      </g>
     </g>
     <g id="text_3">
      <!-- Expresser -->
      <g transform="translate(130.367745 181.886626) rotate(-20) scale(0.1 -0.1)">
       <defs>
        <path id="DejaVuSans-53" d="M 1159 525 
L 1159 -1331 
L 581 -1331 
L 581 3500 
L 1159 3500 
L 1159 2969 
Q 1341 3281 1617 3432 
Q 1894 3584 2278 3584 
Q 2916 3584 3314 3078 
Q 3713 2572 3713 1747 
Q 3713 922 3314 415 
Q 2916 -91 2278 -91 
Q 1894 -91 1617 61 
Q 1341 213 1159 525 
z
M 3116 1747 
Q 3116 2381 2855 2742 
Q 2594 3103 2138 3103 
Q 1681 3103 1420 2742 
Q 1159 2381 1159 1747 
Q 1159 1113 1420 752 
Q 1681 391 2138 391 
Q 2594 391 2855 752 
Q 3116 1113 3116 1747 
z
" transform="scale(0.015625)"/>
        <path id="DejaVuSans-56" d="M 2834 3397 
L 2834 2853 
Q 2591 2978 2328 3040 
Q 2066 3103 1784 3103 
Q 1356 3103 1142 2972 
Q 928 2841 928 2578 
Q 928 2378 1081 2264 
Q 1234 2150 1697 2047 
L 1894 2003 
Q 2506 1872 2764 1633 
Q 3022 1394 3022 966 
Q 3022 478 2636 193 
Q 2250 -91 1575 -91 
Q 1294 -91 989 -36 
Q 684 19 347 128 
L 347 722 
Q 666 556 975 473 
Q 1284 391 1588 391 
Q 1994 391 2212 530 
Q 2431 669 2431 922 
Q 2431 1156 2273 1281 
Q 2116 1406 1581 1522 
L 1381 1569 
Q 847 1681 609 1914 
Q 372 2147 372 2553 
Q 372 3047 722 3315 
Q 1072 3584 1716 3584 
Q 2034 3584 2315 3537 
Q 2597 3491 2834 3397 
z
" transform="scale(0.015625)"/>
       </defs>
       <use xlink:href="#DejaVuSans-28"/>
       <use xlink:href="#DejaVuSans-5b" transform="translate(63.1875 0)"/>
       <use xlink:href="#DejaVuSans-53" transform="translate(122.375 0)"/>
       <use xlink:href="#DejaVuSans-55" transform="translate(185.859375 0)"/>
       <use xlink:href="#DejaVuSans-48" transform="translate(224.765625 0)"/>
       <use xlink:href="#DejaVuSans-56" transform="translate(286.296875 0)"/>
       <use xlink:href="#DejaVuSans-56" transform="translate(338.390625 0)"/>
       <use xlink:href="#DejaVuSans-48" transform="translate(390.484375 0)"/>
       <use xlink:href="#DejaVuSans-55" transform="translate(452.015625 0)"/>
      </g>
     </g>
    </g>
    <g id="xtick_4">
     <g id="line2d_4">
      <g>
       <use xlink:href="#m8f5ad05085" x="228.28982" y="150.881297" style="stroke: #000000; stroke-width: 0.8"/>
      </g>
     </g>
     <g id="text_4">
      <!-- Reviewer -->
      <g transform="translate(184.293699 180.735715) rotate(-20) scale(0.1 -0.1)">
       <defs>
        <path id="DejaVuSans-35" d="M 2841 2188 
Q 3044 2119 3236 1894 
Q 3428 1669 3622 1275 
L 4263 0 
L 3584 0 
L 2988 1197 
Q 2756 1666 2539 1819 
Q 2322 1972 1947 1972 
L 1259 1972 
L 1259 0 
L 628 0 
L 628 4666 
L 2053 4666 
Q 2853 4666 3247 4331 
Q 3641 3997 3641 3322 
Q 3641 2881 3436 2590 
Q 3231 2300 2841 2188 
z
M 1259 4147 
L 1259 2491 
L 2053 2491 
Q 2509 2491 2742 2702 
Q 2975 2913 2975 3322 
Q 2975 3731 2742 3939 
Q 2509 4147 2053 4147 
L 1259 4147 
z
" transform="scale(0.015625)"/>
        <path id="DejaVuSans-59" d="M 191 3500 
L 800 3500 
L 1894 563 
L 2988 3500 
L 3597 3500 
L 2284 0 
L 1503 0 
L 191 3500 
z
" transform="scale(0.015625)"/>
        <path id="DejaVuSans-4c" d="M 603 3500 
L 1178 3500 
L 1178 0 
L 603 0 
L 603 3500 
z
M 603 4863 
L 1178 4863 
L 1178 4134 
L 603 4134 
L 603 4863 
z
" transform="scale(0.015625)"/>
        <path id="DejaVuSans-5a" d="M 269 3500 
L 844 3500 
L 1563 769 
L 2278 3500 
L 2956 3500 
L 3675 769 
L 4391 3500 
L 4966 3500 
L 4050 0 
L 3372 0 
L 2619 2869 
L 1863 0 
L 1184 0 
L 269 3500 
z
" transform="scale(0.015625)"/>
       </defs>
       <use xlink:href="#DejaVuSans-35"/>
       <use xlink:href="#DejaVuSans-48" transform="translate(65 0)"/>
       <use xlink:href="#DejaVuSans-59" transform="translate(126.53125 0)"/>
       <use xlink:href="#DejaVuSans-4c" transform="translate(185.71875 0)"/>
       <use xlink:href="#DejaVuSans-48" transform="translate(213.5 0)"/>
       <use xlink:href="#DejaVuSans-5a" transform="translate(275.03125 0)"/>
       <use xlink:href="#DejaVuSans-48" transform="translate(356.8125 0)"/>
       <use xlink:href="#DejaVuSans-55" transform="translate(418.34375 0)"/>
      </g>
     </g>
    </g>
   </g>
   <g id="matplotlib.axis_2">
    <g id="ytick_1">
     <g id="line2d_5">
      <path d="M 48.288359 150.881297 
L 256.005781 150.881297 
" clip-path="url(#p1ce9bb6b64)" style="fill: none; stroke-dasharray: 1.85,0.8; stroke-dashoffset: 0; stroke: #b0b0b0; stroke-opacity: 0.5; stroke-width: 0.5"/>
     </g>
     <g id="line2d_6">
      <defs>
       <path id="mf96eb83a20" d="M 0 0 
L -3.5 0 
" style="stroke: #000000; stroke-width: 0.8"/>
      </defs>
      <g>
       <use xlink:href="#mf96eb83a20" x="48.288359" y="150.881297" style="stroke: #000000; stroke-width: 0.8"/>
      </g>
     </g>
     <g id="text_5">
      <!-- 0 -->
      <g transform="translate(34.925859 154.680125) scale(0.1 -0.1)">
       <defs>
        <path id="DejaVuSans-13" d="M 2034 4250 
Q 1547 4250 1301 3770 
Q 1056 3291 1056 2328 
Q 1056 1369 1301 889 
Q 1547 409 2034 409 
Q 2525 409 2770 889 
Q 3016 1369 3016 2328 
Q 3016 3291 2770 3770 
Q 2525 4250 2034 4250 
z
M 2034 4750 
Q 2819 4750 3233 4129 
Q 3647 3509 3647 2328 
Q 3647 1150 3233 529 
Q 2819 -91 2034 -91 
Q 1250 -91 836 529 
Q 422 1150 422 2328 
Q 422 3509 836 4129 
Q 1250 4750 2034 4750 
z
" transform="scale(0.015625)"/>
       </defs>
       <use xlink:href="#DejaVuSans-13"/>
      </g>
     </g>
    </g>
    <g id="ytick_2">
     <g id="line2d_7">
      <path d="M 48.288359 125.016694 
L 256.005781 125.016694 
" clip-path="url(#p1ce9bb6b64)" style="fill: none; stroke-dasharray: 1.85,0.8; stroke-dashoffset: 0; stroke: #b0b0b0; stroke-opacity: 0.5; stroke-width: 0.5"/>
     </g>
     <g id="line2d_8">
      <g>
       <use xlink:href="#mf96eb83a20" x="48.288359" y="125.016694" style="stroke: #000000; stroke-width: 0.8"/>
      </g>
     </g>
     <g id="text_6">
      <!-- 20 -->
      <g transform="translate(28.563359 128.815522) scale(0.1 -0.1)">
       <defs>
        <path id="DejaVuSans-15" d="M 1228 531 
L 3431 531 
L 3431 0 
L 469 0 
L 469 531 
Q 828 903 1448 1529 
Q 2069 2156 2228 2338 
Q 2531 2678 2651 2914 
Q 2772 3150 2772 3378 
Q 2772 3750 2511 3984 
Q 2250 4219 1831 4219 
Q 1534 4219 1204 4116 
Q 875 4013 500 3803 
L 500 4441 
Q 881 4594 1212 4672 
Q 1544 4750 1819 4750 
Q 2544 4750 2975 4387 
Q 3406 4025 3406 3419 
Q 3406 3131 3298 2873 
Q 3191 2616 2906 2266 
Q 2828 2175 2409 1742 
Q 1991 1309 1228 531 
z
" transform="scale(0.015625)"/>
       </defs>
       <use xlink:href="#DejaVuSans-15"/>
       <use xlink:href="#DejaVuSans-13" transform="translate(63.625 0)"/>
      </g>
     </g>
    </g>
    <g id="ytick_3">
     <g id="line2d_9">
      <path d="M 48.288359 99.15209 
L 256.005781 99.15209 
" clip-path="url(#p1ce9bb6b64)" style="fill: none; stroke-dasharray: 1.85,0.8; stroke-dashoffset: 0; stroke: #b0b0b0; stroke-opacity: 0.5; stroke-width: 0.5"/>
     </g>
     <g id="line2d_10">
      <g>
       <use xlink:href="#mf96eb83a20" x="48.288359" y="99.15209" style="stroke: #000000; stroke-width: 0.8"/>
      </g>
     </g>
     <g id="text_7">
      <!-- 40 -->
      <g transform="translate(28.563359 102.950919) scale(0.1 -0.1)">
       <defs>
        <path id="DejaVuSans-17" d="M 2419 4116 
L 825 1625 
L 2419 1625 
L 2419 4116 
z
M 2253 4666 
L 3047 4666 
L 3047 1625 
L 3713 1625 
L 3713 1100 
L 3047 1100 
L 3047 0 
L 2419 0 
L 2419 1100 
L 313 1100 
L 313 1709 
L 2253 4666 
z
" transform="scale(0.015625)"/>
       </defs>
       <use xlink:href="#DejaVuSans-17"/>
       <use xlink:href="#DejaVuSans-13" transform="translate(63.625 0)"/>
      </g>
     </g>
    </g>
    <g id="ytick_4">
     <g id="line2d_11">
      <path d="M 48.288359 73.287487 
L 256.005781 73.287487 
" clip-path="url(#p1ce9bb6b64)" style="fill: none; stroke-dasharray: 1.85,0.8; stroke-dashoffset: 0; stroke: #b0b0b0; stroke-opacity: 0.5; stroke-width: 0.5"/>
     </g>
     <g id="line2d_12">
      <g>
       <use xlink:href="#mf96eb83a20" x="48.288359" y="73.287487" style="stroke: #000000; stroke-width: 0.8"/>
      </g>
     </g>
     <g id="text_8">
      <!-- 60 -->
      <g transform="translate(28.563359 77.086316) scale(0.1 -0.1)">
       <defs>
        <path id="DejaVuSans-19" d="M 2113 2584 
Q 1688 2584 1439 2293 
Q 1191 2003 1191 1497 
Q 1191 994 1439 701 
Q 1688 409 2113 409 
Q 2538 409 2786 701 
Q 3034 994 3034 1497 
Q 3034 2003 2786 2293 
Q 2538 2584 2113 2584 
z
M 3366 4563 
L 3366 3988 
Q 3128 4100 2886 4159 
Q 2644 4219 2406 4219 
Q 1781 4219 1451 3797 
Q 1122 3375 1075 2522 
Q 1259 2794 1537 2939 
Q 1816 3084 2150 3084 
Q 2853 3084 3261 2657 
Q 3669 2231 3669 1497 
Q 3669 778 3244 343 
Q 2819 -91 2113 -91 
Q 1303 -91 875 529 
Q 447 1150 447 2328 
Q 447 3434 972 4092 
Q 1497 4750 2381 4750 
Q 2619 4750 2861 4703 
Q 3103 4656 3366 4563 
z
" transform="scale(0.015625)"/>
       </defs>
       <use xlink:href="#DejaVuSans-19"/>
       <use xlink:href="#DejaVuSans-13" transform="translate(63.625 0)"/>
      </g>
     </g>
    </g>
    <g id="ytick_5">
     <g id="line2d_13">
      <path d="M 48.288359 47.422884 
L 256.005781 47.422884 
" clip-path="url(#p1ce9bb6b64)" style="fill: none; stroke-dasharray: 1.85,0.8; stroke-dashoffset: 0; stroke: #b0b0b0; stroke-opacity: 0.5; stroke-width: 0.5"/>
     </g>
     <g id="line2d_14">
      <g>
       <use xlink:href="#mf96eb83a20" x="48.288359" y="47.422884" style="stroke: #000000; stroke-width: 0.8"/>
      </g>
     </g>
     <g id="text_9">
      <!-- 80 -->
      <g transform="translate(28.563359 51.221712) scale(0.1 -0.1)">
       <defs>
        <path id="DejaVuSans-1b" d="M 2034 2216 
Q 1584 2216 1326 1975 
Q 1069 1734 1069 1313 
Q 1069 891 1326 650 
Q 1584 409 2034 409 
Q 2484 409 2743 651 
Q 3003 894 3003 1313 
Q 3003 1734 2745 1975 
Q 2488 2216 2034 2216 
z
M 1403 2484 
Q 997 2584 770 2862 
Q 544 3141 544 3541 
Q 544 4100 942 4425 
Q 1341 4750 2034 4750 
Q 2731 4750 3128 4425 
Q 3525 4100 3525 3541 
Q 3525 3141 3298 2862 
Q 3072 2584 2669 2484 
Q 3125 2378 3379 2068 
Q 3634 1759 3634 1313 
Q 3634 634 3220 271 
Q 2806 -91 2034 -91 
Q 1263 -91 848 271 
Q 434 634 434 1313 
Q 434 1759 690 2068 
Q 947 2378 1403 2484 
z
M 1172 3481 
Q 1172 3119 1398 2916 
Q 1625 2713 2034 2713 
Q 2441 2713 2670 2916 
Q 2900 3119 2900 3481 
Q 2900 3844 2670 4047 
Q 2441 4250 2034 4250 
Q 1625 4250 1398 4047 
Q 1172 3844 1172 3481 
z
" transform="scale(0.015625)"/>
       </defs>
       <use xlink:href="#DejaVuSans-1b"/>
       <use xlink:href="#DejaVuSans-13" transform="translate(63.625 0)"/>
      </g>
     </g>
    </g>
    <g id="ytick_6">
     <g id="line2d_15">
      <path d="M 48.288359 21.558281 
L 256.005781 21.558281 
" clip-path="url(#p1ce9bb6b64)" style="fill: none; stroke-dasharray: 1.85,0.8; stroke-dashoffset: 0; stroke: #b0b0b0; stroke-opacity: 0.5; stroke-width: 0.5"/>
     </g>
     <g id="line2d_16">
      <g>
       <use xlink:href="#mf96eb83a20" x="48.288359" y="21.558281" style="stroke: #000000; stroke-width: 0.8"/>
      </g>
     </g>
     <g id="text_10">
      <!-- 100 -->
      <g transform="translate(22.200859 25.357109) scale(0.1 -0.1)">
       <defs>
        <path id="DejaVuSans-14" d="M 794 531 
L 1825 531 
L 1825 4091 
L 703 3866 
L 703 4441 
L 1819 4666 
L 2450 4666 
L 2450 531 
L 3481 531 
L 3481 0 
L 794 0 
L 794 531 
z
" transform="scale(0.015625)"/>
       </defs>
       <use xlink:href="#DejaVuSans-14"/>
       <use xlink:href="#DejaVuSans-13" transform="translate(63.625 0)"/>
       <use xlink:href="#DejaVuSans-13" transform="translate(127.25 0)"/>
      </g>
     </g>
    </g>
    <g id="text_11">
     <!-- Cache hit ratio (%) -->
     <g transform="translate(15.558281 137.936976) rotate(-90) scale(0.11 -0.11)">
      <defs>
       <path id="DejaVuSans-26" d="M 4122 4306 
L 4122 3641 
Q 3803 3938 3442 4084 
Q 3081 4231 2675 4231 
Q 1875 4231 1450 3742 
Q 1025 3253 1025 2328 
Q 1025 1406 1450 917 
Q 1875 428 2675 428 
Q 3081 428 3442 575 
Q 3803 722 4122 1019 
L 4122 359 
Q 3791 134 3420 21 
Q 3050 -91 2638 -91 
Q 1578 -91 968 557 
Q 359 1206 359 2328 
Q 359 3453 968 4101 
Q 1578 4750 2638 4750 
Q 3056 4750 3426 4639 
Q 3797 4528 4122 4306 
z
" transform="scale(0.015625)"/>
       <path id="DejaVuSans-4b" d="M 3513 2113 
L 3513 0 
L 2938 0 
L 2938 2094 
Q 2938 2591 2744 2837 
Q 2550 3084 2163 3084 
Q 1697 3084 1428 2787 
Q 1159 2491 1159 1978 
L 1159 0 
L 581 0 
L 581 4863 
L 1159 4863 
L 1159 2956 
Q 1366 3272 1645 3428 
Q 1925 3584 2291 3584 
Q 2894 3584 3203 3211 
Q 3513 2838 3513 2113 
z
" transform="scale(0.015625)"/>
       <path id="DejaVuSans-3" transform="scale(0.015625)"/>
       <path id="DejaVuSans-b" d="M 1984 4856 
Q 1566 4138 1362 3434 
Q 1159 2731 1159 2009 
Q 1159 1288 1364 580 
Q 1569 -128 1984 -844 
L 1484 -844 
Q 1016 -109 783 600 
Q 550 1309 550 2009 
Q 550 2706 781 3412 
Q 1013 4119 1484 4856 
L 1984 4856 
z
" transform="scale(0.015625)"/>
       <path id="DejaVuSans-8" d="M 4653 2053 
Q 4381 2053 4226 1822 
Q 4072 1591 4072 1178 
Q 4072 772 4226 539 
Q 4381 306 4653 306 
Q 4919 306 5073 539 
Q 5228 772 5228 1178 
Q 5228 1588 5073 1820 
Q 4919 2053 4653 2053 
z
M 4653 2450 
Q 5147 2450 5437 2106 
Q 5728 1763 5728 1178 
Q 5728 594 5436 251 
Q 5144 -91 4653 -91 
Q 4153 -91 3862 251 
Q 3572 594 3572 1178 
Q 3572 1766 3864 2108 
Q 4156 2450 4653 2450 
z
M 1428 4353 
Q 1159 4353 1004 4120 
Q 850 3888 850 3481 
Q 850 3069 1003 2837 
Q 1156 2606 1428 2606 
Q 1700 2606 1854 2837 
Q 2009 3069 2009 3481 
Q 2009 3884 1853 4118 
Q 1697 4353 1428 4353 
z
M 4250 4750 
L 4750 4750 
L 1831 -91 
L 1331 -91 
L 4250 4750 
z
M 1428 4750 
Q 1922 4750 2215 4408 
Q 2509 4066 2509 3481 
Q 2509 2891 2217 2550 
Q 1925 2209 1428 2209 
Q 931 2209 642 2551 
Q 353 2894 353 3481 
Q 353 4063 643 4406 
Q 934 4750 1428 4750 
z
" transform="scale(0.015625)"/>
       <path id="DejaVuSans-c" d="M 513 4856 
L 1013 4856 
Q 1481 4119 1714 3412 
Q 1947 2706 1947 2009 
Q 1947 1309 1714 600 
Q 1481 -109 1013 -844 
L 513 -844 
Q 928 -128 1133 580 
Q 1338 1288 1338 2009 
Q 1338 2731 1133 3434 
Q 928 4138 513 4856 
z
" transform="scale(0.015625)"/>
      </defs>
      <use xlink:href="#DejaVuSans-26"/>
      <use xlink:href="#DejaVuSans-44" transform="translate(69.828125 0)"/>
      <use xlink:href="#DejaVuSans-46" transform="translate(131.109375 0)"/>
      <use xlink:href="#DejaVuSans-4b" transform="translate(186.09375 0)"/>
      <use xlink:href="#DejaVuSans-48" transform="translate(249.46875 0)"/>
      <use xlink:href="#DejaVuSans-3" transform="translate(311 0)"/>
      <use xlink:href="#DejaVuSans-4b" transform="translate(342.78125 0)"/>
      <use xlink:href="#DejaVuSans-4c" transform="translate(406.15625 0)"/>
      <use xlink:href="#DejaVuSans-57" transform="translate(433.9375 0)"/>
      <use xlink:href="#DejaVuSans-3" transform="translate(473.140625 0)"/>
      <use xlink:href="#DejaVuSans-55" transform="translate(504.921875 0)"/>
      <use xlink:href="#DejaVuSans-44" transform="translate(546.03125 0)"/>
      <use xlink:href="#DejaVuSans-57" transform="translate(607.3125 0)"/>
      <use xlink:href="#DejaVuSans-4c" transform="translate(646.515625 0)"/>
      <use xlink:href="#DejaVuSans-52" transform="translate(674.296875 0)"/>
      <use xlink:href="#DejaVuSans-3" transform="translate(735.484375 0)"/>
      <use xlink:href="#DejaVuSans-b" transform="translate(767.265625 0)"/>
      <use xlink:href="#DejaVuSans-8" transform="translate(806.28125 0)"/>
      <use xlink:href="#DejaVuSans-c" transform="translate(901.296875 0)"/>
     </g>
    </g>
   </g>
   <g id="patch_3">
    <path d="M 48.288359 150.881297 
L 48.288359 21.558281 
" style="fill: none; stroke: #000000; stroke-width: 0.8; stroke-linejoin: miter; stroke-linecap: square"/>
   </g>
   <g id="patch_4">
    <path d="M 48.288359 150.881297 
L 256.005781 150.881297 
" style="fill: none; stroke: #000000; stroke-width: 0.8; stroke-linejoin: miter; stroke-linecap: square"/>
   </g>
   <g id="patch_5">
    <path d="M 144.156999 102.511094 
Q 136.423253 100.266011 129.548472 98.270283 
" style="fill: none; stroke: #000000; stroke-width: 0.8; stroke-linecap: round"/>
    <path d="M 132.175541 100.698968 
L 129.548472 98.270283 
L 133.067661 97.625839 
" style="fill: none; stroke: #000000; stroke-width: 0.8; stroke-linecap: round"/>
   </g>
   <g id="text_12">
    <!-- Dynamic tool outputs -->
    <g transform="translate(143.00994 111.948196) scale(0.08 -0.08)">
     <defs>
      <path id="DejaVuSans-27" d="M 1259 4147 
L 1259 519 
L 2022 519 
Q 2988 519 3436 956 
Q 3884 1394 3884 2338 
Q 3884 3275 3436 3711 
Q 2988 4147 2022 4147 
L 1259 4147 
z
M 628 4666 
L 1925 4666 
Q 3281 4666 3915 4102 
Q 4550 3538 4550 2338 
Q 4550 1131 3912 565 
Q 3275 0 1925 0 
L 628 0 
L 628 4666 
z
" transform="scale(0.015625)"/>
      <path id="DejaVuSans-5c" d="M 2059 -325 
Q 1816 -950 1584 -1140 
Q 1353 -1331 966 -1331 
L 506 -1331 
L 506 -850 
L 844 -850 
Q 1081 -850 1212 -737 
Q 1344 -625 1503 -206 
L 1606 56 
L 191 3500 
L 800 3500 
L 1894 763 
L 2988 3500 
L 3597 3500 
L 2059 -325 
z
" transform="scale(0.015625)"/>
      <path id="DejaVuSans-50" d="M 3328 2828 
Q 3544 3216 3844 3400 
Q 4144 3584 4550 3584 
Q 5097 3584 5394 3201 
Q 5691 2819 5691 2113 
L 5691 0 
L 5113 0 
L 5113 2094 
Q 5113 2597 4934 2840 
Q 4756 3084 4391 3084 
Q 3944 3084 3684 2787 
Q 3425 2491 3425 1978 
L 3425 0 
L 2847 0 
L 2847 2094 
Q 2847 2600 2669 2842 
Q 2491 3084 2119 3084 
Q 1678 3084 1418 2786 
Q 1159 2488 1159 1978 
L 1159 0 
L 581 0 
L 581 3500 
L 1159 3500 
L 1159 2956 
Q 1356 3278 1631 3431 
Q 1906 3584 2284 3584 
Q 2666 3584 2933 3390 
Q 3200 3197 3328 2828 
z
" transform="scale(0.015625)"/>
     </defs>
     <use xlink:href="#DejaVuSans-27"/>
     <use xlink:href="#DejaVuSans-5c" transform="translate(77 0)"/>
     <use xlink:href="#DejaVuSans-51" transform="translate(136.1875 0)"/>
     <use xlink:href="#DejaVuSans-44" transform="translate(199.5625 0)"/>
     <use xlink:href="#DejaVuSans-50" transform="translate(260.84375 0)"/>
     <use xlink:href="#DejaVuSans-4c" transform="translate(358.25 0)"/>
     <use xlink:href="#DejaVuSans-46" transform="translate(386.03125 0)"/>
     <use xlink:href="#DejaVuSans-3" transform="translate(441.015625 0)"/>
     <use xlink:href="#DejaVuSans-57" transform="translate(472.796875 0)"/>
     <use xlink:href="#DejaVuSans-52" transform="translate(512 0)"/>
     <use xlink:href="#DejaVuSans-52" transform="translate(573.1875 0)"/>
     <use xlink:href="#DejaVuSans-4f" transform="translate(634.375 0)"/>
     <use xlink:href="#DejaVuSans-3" transform="translate(662.15625 0)"/>
     <use xlink:href="#DejaVuSans-52" transform="translate(693.9375 0)"/>
     <use xlink:href="#DejaVuSans-58" transform="translate(755.125 0)"/>
     <use xlink:href="#DejaVuSans-57" transform="translate(818.5 0)"/>
     <use xlink:href="#DejaVuSans-53" transform="translate(857.703125 0)"/>
     <use xlink:href="#DejaVuSans-58" transform="translate(921.1875 0)"/>
     <use xlink:href="#DejaVuSans-57" transform="translate(984.5625 0)"/>
     <use xlink:href="#DejaVuSans-56" transform="translate(1023.765625 0)"/>
    </g>
    <!-- reduce reuse -->
    <g transform="translate(143.00994 121.550384) scale(0.08 -0.08)">
     <defs>
      <path id="DejaVuSans-47" d="M 2906 2969 
L 2906 4863 
L 3481 4863 
L 3481 0 
L 2906 0 
L 2906 525 
Q 2725 213 2448 61 
Q 2172 -91 1784 -91 
Q 1150 -91 751 415 
Q 353 922 353 1747 
Q 353 2572 751 3078 
Q 1150 3584 1784 3584 
Q 2172 3584 2448 3432 
Q 2725 3281 2906 2969 
z
M 947 1747 
Q 947 1113 1208 752 
Q 1469 391 1925 391 
Q 2381 391 2643 752 
Q 2906 1113 2906 1747 
Q 2906 2381 2643 2742 
Q 2381 3103 1925 3103 
Q 1469 3103 1208 2742 
Q 947 2381 947 1747 
z
" transform="scale(0.015625)"/>
     </defs>
     <use xlink:href="#DejaVuSans-55"/>
     <use xlink:href="#DejaVuSans-48" transform="translate(38.90625 0)"/>
     <use xlink:href="#DejaVuSans-47" transform="translate(100.4375 0)"/>
     <use xlink:href="#DejaVuSans-58" transform="translate(163.921875 0)"/>
     <use xlink:href="#DejaVuSans-46" transform="translate(227.296875 0)"/>
     <use xlink:href="#DejaVuSans-48" transform="translate(282.28125 0)"/>
     <use xlink:href="#DejaVuSans-3" transform="translate(343.8125 0)"/>
     <use xlink:href="#DejaVuSans-55" transform="translate(375.59375 0)"/>
     <use xlink:href="#DejaVuSans-48" transform="translate(414.5 0)"/>
     <use xlink:href="#DejaVuSans-58" transform="translate(476.03125 0)"/>
     <use xlink:href="#DejaVuSans-56" transform="translate(539.40625 0)"/>
     <use xlink:href="#DejaVuSans-48" transform="translate(591.5 0)"/>
    </g>
   </g>
   <g id="text_13">
    <!-- Figure 1. Cache hit ratio distribution by agent -->
    <g transform="translate(26.938711 15.558281) scale(0.11 -0.11)">
     <defs>
      <path id="DejaVuSans-29" d="M 628 4666 
L 3309 4666 
L 3309 4134 
L 1259 4134 
L 1259 2759 
L 3109 2759 
L 3109 2228 
L 1259 2228 
L 1259 0 
L 628 0 
L 628 4666 
z
" transform="scale(0.015625)"/>
      <path id="DejaVuSans-4a" d="M 2906 1791 
Q 2906 2416 2648 2759 
Q 2391 3103 1925 3103 
Q 1463 3103 1205 2759 
Q 947 2416 947 1791 
Q 947 1169 1205 825 
Q 1463 481 1925 481 
Q 2391 481 2648 825 
Q 2906 1169 2906 1791 
z
M 3481 434 
Q 3481 -459 3084 -895 
Q 2688 -1331 1869 -1331 
Q 1566 -1331 1297 -1286 
Q 1028 -1241 775 -1147 
L 775 -588 
Q 1028 -725 1275 -790 
Q 1522 -856 1778 -856 
Q 2344 -856 2625 -561 
Q 2906 -266 2906 331 
L 2906 616 
Q 2728 306 2450 153 
Q 2172 0 1784 0 
Q 1141 0 747 490 
Q 353 981 353 1791 
Q 353 2603 747 3093 
Q 1141 3584 1784 3584 
Q 2172 3584 2450 3431 
Q 2728 3278 2906 2969 
L 2906 3500 
L 3481 3500 
L 3481 434 
z
" transform="scale(0.015625)"/>
      <path id="DejaVuSans-11" d="M 684 794 
L 1344 794 
L 1344 0 
L 684 0 
L 684 794 
z
" transform="scale(0.015625)"/>
      <path id="DejaVuSans-45" d="M 3116 1747 
Q 3116 2381 2855 2742 
Q 2594 3103 2138 3103 
Q 1681 3103 1420 2742 
Q 1159 2381 1159 1747 
Q 1159 1113 1420 752 
Q 1681 391 2138 391 
Q 2594 391 2855 752 
Q 3116 1113 3116 1747 
z
M 1159 2969 
Q 1341 3281 1617 3432 
Q 1894 3584 2278 3584 
Q 2916 3584 3314 3078 
Q 3713 2572 3713 1747 
Q 3713 922 3314 415 
Q 2916 -91 2278 -91 
Q 1894 -91 1617 61 
Q 1341 213 1159 525 
L 1159 0 
L 581 0 
L 581 4863 
L 1159 4863 
L 1159 2969 
z
" transform="scale(0.015625)"/>
     </defs>
     <use xlink:href="#DejaVuSans-29"/>
     <use xlink:href="#DejaVuSans-4c" transform="translate(50.234375 0)"/>
     <use xlink:href="#DejaVuSans-4a" transform="translate(78.015625 0)"/>
     <use xlink:href="#DejaVuSans-58" transform="translate(141.5 0)"/>
     <use xlink:href="#DejaVuSans-55" transform="translate(204.875 0)"/>
     <use xlink:href="#DejaVuSans-48" transform="translate(243.78125 0)"/>
     <use xlink:href="#DejaVuSans-3" transform="translate(305.3125 0)"/>
     <use xlink:href="#DejaVuSans-14" transform="translate(337.09375 0)"/>
     <use xlink:href="#DejaVuSans-11" transform="translate(400.71875 0)"/>
     <use xlink:href="#DejaVuSans-3" transform="translate(432.5 0)"/>
     <use xlink:href="#DejaVuSans-26" transform="translate(464.28125 0)"/>
     <use xlink:href="#DejaVuSans-44" transform="translate(534.109375 0)"/>
     <use xlink:href="#DejaVuSans-46" transform="translate(595.390625 0)"/>
     <use xlink:href="#DejaVuSans-4b" transform="translate(650.375 0)"/>
     <use xlink:href="#DejaVuSans-48" transform="translate(713.75 0)"/>
     <use xlink:href="#DejaVuSans-3" transform="translate(775.28125 0)"/>
     <use xlink:href="#DejaVuSans-4b" transform="translate(807.0625 0)"/>
     <use xlink:href="#DejaVuSans-4c" transform="translate(870.4375 0)"/>
     <use xlink:href="#DejaVuSans-57" transform="translate(898.21875 0)"/>
     <use xlink:href="#DejaVuSans-3" transform="translate(937.421875 0)"/>
     <use xlink:href="#DejaVuSans-55" transform="translate(969.203125 0)"/>
     <use xlink:href="#DejaVuSans-44" transform="translate(1010.3125 0)"/>
     <use xlink:href="#DejaVuSans-57" transform="translate(1071.59375 0)"/>
     <use xlink:href="#DejaVuSans-4c" transform="translate(1110.796875 0)"/>
     <use xlink:href="#DejaVuSans-52" transform="translate(1138.578125 0)"/>
     <use xlink:href="#DejaVuSans-3" transform="translate(1199.765625 0)"/>
     <use xlink:href="#DejaVuSans-47" transform="translate(1231.546875 0)"/>
     <use xlink:href="#DejaVuSans-4c" transform="translate(1295.03125 0)"/>
     <use xlink:href="#DejaVuSans-56" transform="translate(1322.8125 0)"/>
     <use xlink:href="#DejaVuSans-57" transform="translate(1374.90625 0)"/>
     <use xlink:href="#DejaVuSans-55" transform="translate(1414.109375 0)"/>
     <use xlink:href="#DejaVuSans-4c" transform="translate(1455.21875 0)"/>
     <use xlink:href="#DejaVuSans-45" transform="translate(1483 0)"/>
     <use xlink:href="#DejaVuSans-58" transform="translate(1546.484375 0)"/>
     <use xlink:href="#DejaVuSans-57" transform="translate(1609.859375 0)"/>
     <use xlink:href="#DejaVuSans-4c" transform="translate(1649.0625 0)"/>
     <use xlink:href="#DejaVuSans-52" transform="translate(1676.84375 0)"/>
     <use xlink:href="#DejaVuSans-51" transform="translate(1738.03125 0)"/>
     <use xlink:href="#DejaVuSans-3" transform="translate(1801.40625 0)"/>
     <use xlink:href="#DejaVuSans-45" transform="translate(1833.1875 0)"/>
     <use xlink:href="#DejaVuSans-5c" transform="translate(1896.671875 0)"/>
     <use xlink:href="#DejaVuSans-3" transform="translate(1955.859375 0)"/>
     <use xlink:href="#DejaVuSans-44" transform="translate(1987.640625 0)"/>
     <use xlink:href="#DejaVuSans-4a" transform="translate(2048.921875 0)"/>
     <use xlink:href="#DejaVuSans-48" transform="translate(2112.40625 0)"/>
     <use xlink:href="#DejaVuSans-51" transform="translate(2173.9375 0)"/>
     <use xlink:href="#DejaVuSans-57" transform="translate(2237.3125 0)"/>
    </g>
   </g>
   <g id="PathCollection_1">
    <defs>
     <path id="m0aedf498d3" d="M 0 1.732051 
C 0.459345 1.732051 0.899939 1.549551 1.224745 1.224745 
C 1.549551 0.899939 1.732051 0.459345 1.732051 0 
C 1.732051 -0.459345 1.549551 -0.899939 1.224745 -1.224745 
C 0.899939 -1.549551 0.459345 -1.732051 0 -1.732051 
C -0.459345 -1.732051 -0.899939 -1.549551 -1.224745 -1.224745 
C -1.549551 -0.899939 -1.732051 -0.459345 -1.732051 0 
C -1.732051 0.459345 -1.549551 0.899939 -1.224745 1.224745 
C -0.899939 1.549551 -0.459345 1.732051 0 1.732051 
z
" style="stroke: #000000; stroke-width: 0.5"/>
    </defs>
    <g clip-path="url(#p1ce9bb6b64)">
     <use xlink:href="#m0aedf498d3" x="71.479251" y="34.598128" style="fill: #ffffff; stroke: #000000; stroke-width: 0.5"/>
     <use xlink:href="#m0aedf498d3" x="75.995523" y="44.358939" style="fill: #ffffff; stroke: #000000; stroke-width: 0.5"/>
     <use xlink:href="#m0aedf498d3" x="77.240859" y="42.10141" style="fill: #ffffff; stroke: #000000; stroke-width: 0.5"/>
     <use xlink:href="#m0aedf498d3" x="70.262414" y="40.40542" style="fill: #ffffff; stroke: #000000; stroke-width: 0.5"/>
     <use xlink:href="#m0aedf498d3" x="71.71506" y="45.82087" style="fill: #ffffff; stroke: #000000; stroke-width: 0.5"/>
     <use xlink:href="#m0aedf498d3" x="81.221147" y="42.240614" style="fill: #ffffff; stroke: #000000; stroke-width: 0.5"/>
     <use xlink:href="#m0aedf498d3" x="70.770823" y="42.253994" style="fill: #ffffff; stroke: #000000; stroke-width: 0.5"/>
     <use xlink:href="#m0aedf498d3" x="71.493916" y="50.192382" style="fill: #ffffff; stroke: #000000; stroke-width: 0.5"/>
     <use xlink:href="#m0aedf498d3" x="81.466234" y="37.643733" style="fill: #ffffff; stroke: #000000; stroke-width: 0.5"/>
     <use xlink:href="#m0aedf498d3" x="77.489209" y="39.531924" style="fill: #ffffff; stroke: #000000; stroke-width: 0.5"/>
    </g>
   </g>
   <g id="PathCollection_2">
    <g clip-path="url(#p1ce9bb6b64)">
     <use xlink:href="#m0aedf498d3" x="125.170118" y="100.125342" style="fill: #ffffff; stroke: #000000; stroke-width: 0.5"/>
     <use xlink:href="#m0aedf498d3" x="126.904916" y="96.603508" style="fill: #ffffff; stroke: #000000; stroke-width: 0.5"/>
     <use xlink:href="#m0aedf498d3" x="128.750043" y="91.35159" style="fill: #ffffff; stroke: #000000; stroke-width: 0.5"/>
     <use xlink:href="#m0aedf498d3" x="124.028777" y="97.300364" style="fill: #ffffff; stroke: #000000; stroke-width: 0.5"/>
     <use xlink:href="#m0aedf498d3" x="122.355577" y="97.155983" style="fill: #ffffff; stroke: #000000; stroke-width: 0.5"/>
     <use xlink:href="#m0aedf498d3" x="130.275294" y="106.548654" style="fill: #ffffff; stroke: #000000; stroke-width: 0.5"/>
     <use xlink:href="#m0aedf498d3" x="128.841629" y="90.9692" style="fill: #ffffff; stroke: #000000; stroke-width: 0.5"/>
     <use xlink:href="#m0aedf498d3" x="126.917005" y="94.311161" style="fill: #ffffff; stroke: #000000; stroke-width: 0.5"/>
     <use xlink:href="#m0aedf498d3" x="130.624903" y="93.142761" style="fill: #ffffff; stroke: #000000; stroke-width: 0.5"/>
     <use xlink:href="#m0aedf498d3" x="127.36403" y="107.117285" style="fill: #ffffff; stroke: #000000; stroke-width: 0.5"/>
    </g>
   </g>
   <g id="PathCollection_3">
    <g clip-path="url(#p1ce9bb6b64)">
     <use xlink:href="#m0aedf498d3" x="183.386881" y="53.33534" style="fill: #ffffff; stroke: #000000; stroke-width: 0.5"/>
     <use xlink:href="#m0aedf498d3" x="173.928073" y="62.043485" style="fill: #ffffff; stroke: #000000; stroke-width: 0.5"/>
     <use xlink:href="#m0aedf498d3" x="178.182575" y="65.194621" style="fill: #ffffff; stroke: #000000; stroke-width: 0.5"/>
     <use xlink:href="#m0aedf498d3" x="177.328489" y="51.133388" style="fill: #ffffff; stroke: #000000; stroke-width: 0.5"/>
     <use xlink:href="#m0aedf498d3" x="175.740458" y="63.205772" style="fill: #ffffff; stroke: #000000; stroke-width: 0.5"/>
     <use xlink:href="#m0aedf498d3" x="178.643878" y="71.383923" style="fill: #ffffff; stroke: #000000; stroke-width: 0.5"/>
     <use xlink:href="#m0aedf498d3" x="174.303204" y="65.299884" style="fill: #ffffff; stroke: #000000; stroke-width: 0.5"/>
     <use xlink:href="#m0aedf498d3" x="181.209674" y="76.258578" style="fill: #ffffff; stroke: #000000; stroke-width: 0.5"/>
     <use xlink:href="#m0aedf498d3" x="182.003153" y="56.834645" style="fill: #ffffff; stroke: #000000; stroke-width: 0.5"/>
     <use xlink:href="#m0aedf498d3" x="173.005225" y="65.365333" style="fill: #ffffff; stroke: #000000; stroke-width: 0.5"/>
    </g>
   </g>
   <g id="PathCollection_4">
    <g clip-path="url(#p1ce9bb6b64)">
     <use xlink:href="#m0aedf498d3" x="227.888678" y="53.850515" style="fill: #ffffff; stroke: #000000; stroke-width: 0.5"/>
     <use xlink:href="#m0aedf498d3" x="225.574812" y="44.461542" style="fill: #ffffff; stroke: #000000; stroke-width: 0.5"/>
     <use xlink:href="#m0aedf498d3" x="223.211001" y="58.550228" style="fill: #ffffff; stroke: #000000; stroke-width: 0.5"/>
     <use xlink:href="#m0aedf498d3" x="233.113546" y="47.239611" style="fill: #ffffff; stroke: #000000; stroke-width: 0.5"/>
     <use xlink:href="#m0aedf498d3" x="227.436396" y="60.688399" style="fill: #ffffff; stroke: #000000; stroke-width: 0.5"/>
     <use xlink:href="#m0aedf498d3" x="223.9977" y="53.434642" style="fill: #ffffff; stroke: #000000; stroke-width: 0.5"/>
     <use xlink:href="#m0aedf498d3" x="230.401866" y="56.238678" style="fill: #ffffff; stroke: #000000; stroke-width: 0.5"/>
     <use xlink:href="#m0aedf498d3" x="224.661966" y="42.446661" style="fill: #ffffff; stroke: #000000; stroke-width: 0.5"/>
     <use xlink:href="#m0aedf498d3" x="233.180391" y="40.873135" style="fill: #ffffff; stroke: #000000; stroke-width: 0.5"/>
     <use xlink:href="#m0aedf498d3" x="224.843883" y="51.713376" style="fill: #ffffff; stroke: #000000; stroke-width: 0.5"/>
    </g>
   </g>
   <g id="PathCollection_5">
    <defs>
     <path id="me103562e66" d="M -0 3.162278 
L 3.162278 0 
L 0 -3.162278 
L -3.162278 -0 
z
" style="stroke: #000000; stroke-width: 0.5"/>
    </defs>
    <g clip-path="url(#p1ce9bb6b64)">
     <use xlink:href="#me103562e66" x="76.00432" y="41.914741" style="stroke: #000000; stroke-width: 0.5"/>
     <use xlink:href="#me103562e66" x="126.766154" y="97.462585" style="stroke: #000000; stroke-width: 0.5"/>
     <use xlink:href="#me103562e66" x="177.527987" y="63.005497" style="stroke: #000000; stroke-width: 0.5"/>
     <use xlink:href="#me103562e66" x="228.28982" y="50.949679" style="stroke: #000000; stroke-width: 0.5"/>
    </g>
   </g>
   <g id="legend_1">
    <g id="PathCollection_6">
     <g>
      <use xlink:href="#me103562e66" x="211.683594" y="138.256687" style="stroke: #000000; stroke-width: 0.5"/>
     </g>
    </g>
    <g id="text_14">
     <!-- Mean -->
     <g transform="translate(223.383594 140.619187) scale(0.09 -0.09)">
      <defs>
       <path id="DejaVuSans-30" d="M 628 4666 
L 1569 4666 
L 2759 1491 
L 3956 4666 
L 4897 4666 
L 4897 0 
L 4281 0 
L 4281 4097 
L 3078 897 
L 2444 897 
L 1241 4097 
L 1241 0 
L 628 0 
L 628 4666 
z
" transform="scale(0.015625)"/>
      </defs>
      <use xlink:href="#DejaVuSans-30"/>
      <use xlink:href="#DejaVuSans-48" transform="translate(86.28125 0)"/>
      <use xlink:href="#DejaVuSans-44" transform="translate(147.8125 0)"/>
      <use xlink:href="#DejaVuSans-51" transform="translate(209.09375 0)"/>
     </g>
    </g>
   </g>
  </g>
 </g>
 <defs>
  <clipPath id="p1ce9bb6b64">
   <rect x="48.288359" y="21.558281" width="207.717422" height="129.323015"/>
  </clipPath>
 </defs>
</svg>
